<svg width="376" height="360" viewBox="0 0 376 360" fill="none" xmlns="http://www.w3.org/2000/svg">
<path fill-rule="evenodd" clip-rule="evenodd" d="M18.3499 87.5269C13.6243 85.78 8.71361 84.4056 3.6529 83.4388C3.28135 83.368 2.909 83.2993 2.5358 83.2325C-0.845265 82.6293 -0.845265 77.7795 2.5358 77.1763C2.909 77.1095 3.28135 77.0408 3.6529 76.9701C8.71361 76.0032 13.6243 74.6288 18.3499 72.8819C21.178 71.8363 23.9398 70.6577 26.6277 69.3526C45.2421 60.3171 60.317 45.2421 69.3531 26.6277C70.6577 23.9398 71.8368 21.178 72.8818 18.3499C74.6288 13.6243 76.0031 8.71361 76.97 3.6529C77.0407 3.28135 77.1095 2.909 77.1762 2.5358C77.7795 -0.845265 82.6293 -0.845265 83.2325 2.5358C83.2992 2.909 83.368 3.28135 83.4387 3.6529C84.4056 8.71361 85.7799 13.6243 87.5269 18.3499C88.5725 21.178 89.751 23.9398 91.0561 26.6277C100.092 45.2421 115.167 60.3171 133.781 69.3526C136.469 70.6577 139.231 71.8363 142.059 72.8819C146.784 74.6288 151.695 76.0032 156.756 76.9701C157.128 77.0408 157.5 77.1095 157.873 77.1763C161.254 77.7795 161.254 82.6293 157.873 83.2325C157.5 83.2993 157.128 83.368 156.756 83.4388C151.695 84.4056 146.784 85.78 142.059 87.5269C139.231 88.5725 136.469 89.7511 133.781 91.0562C115.167 100.092 100.092 115.167 91.0561 133.781C89.751 136.469 88.5725 139.231 87.5269 142.059C85.7799 146.785 84.4056 151.695 83.4387 156.756C83.368 157.127 83.2992 157.5 83.2325 157.873C82.6293 161.254 77.7795 161.254 77.1762 157.873C77.1095 157.5 77.0407 157.127 76.97 156.756C76.0031 151.695 74.6288 146.785 72.8818 142.059C71.8368 139.231 70.6577 136.469 69.3531 133.781C60.317 115.167 45.2421 100.092 26.6277 91.0562C23.9398 89.7511 21.178 88.5725 18.3499 87.5269ZM131.329 207.671C128.024 206.78 124.673 205.998 121.28 205.33C120.749 205.226 120.218 205.124 119.686 205.025L119.525 204.995L119.307 204.955C118.971 204.894 118.602 204.828 117.865 204.696L117.607 204.65C112.2 203.627 112.2 195.884 117.607 194.861L117.865 194.815C118.602 194.683 118.971 194.618 119.307 194.556L119.525 194.516L119.686 194.487C120.218 194.387 120.749 194.286 121.279 194.182C124.672 193.513 128.024 192.732 131.329 191.841C134.152 191.08 136.941 190.239 139.695 189.322C184.246 174.471 219.303 139.414 234.154 94.8634C235.071 92.1097 235.912 89.3202 236.673 86.4968C237.563 83.1922 238.345 79.8408 239.013 76.4475C239.117 75.9175 239.219 75.3865 239.318 74.8545L239.348 74.6931L239.388 74.4749C239.449 74.1432 239.514 73.779 239.643 73.0582L239.647 73.0333L239.693 72.7758C240.716 67.3686 248.459 67.3686 249.482 72.7758L249.528 73.0333C249.66 73.7706 249.726 74.1392 249.787 74.4749L249.827 74.6931L249.857 74.8545C249.956 75.3865 250.057 75.9175 250.162 76.4475C250.83 79.8413 251.612 83.1922 252.502 86.4968C253.263 89.3202 254.104 92.1097 255.021 94.8634C269.872 139.414 304.929 174.471 349.48 189.322C352.233 190.239 355.023 191.08 357.846 191.841C361.151 192.732 364.502 193.513 367.896 194.182C368.426 194.286 368.957 194.387 369.489 194.487L369.65 194.516L369.868 194.556C370.204 194.618 370.573 194.683 371.31 194.815L371.567 194.861C376.975 195.884 376.975 203.627 371.567 204.65L371.31 204.696L370.53 204.836L369.868 204.955L369.65 204.995L369.489 205.025C368.957 205.124 368.426 205.226 367.896 205.33C364.502 205.998 361.151 206.78 357.846 207.671C355.023 208.431 352.233 209.272 349.48 210.19C304.929 225.04 269.872 260.097 255.021 304.648C254.104 307.402 253.263 310.191 252.502 313.015C251.612 316.319 250.83 319.671 250.162 323.064C250.057 323.594 249.956 324.125 249.857 324.657L249.827 324.818L249.787 325.037L249.698 325.528L249.533 326.45L249.482 326.736C248.459 332.143 240.716 332.143 239.693 326.736L239.647 326.478C239.515 325.742 239.449 325.372 239.388 325.037L239.348 324.818L239.318 324.657C239.219 324.125 239.117 323.594 239.013 323.064C238.345 319.67 237.563 316.319 236.673 313.015C235.912 310.191 235.071 307.402 234.154 304.648C219.303 260.097 184.246 225.04 139.695 210.19C136.941 209.272 134.152 208.431 131.329 207.671ZM56.7628 311.387C62.446 312.473 67.8293 314.373 72.7887 316.961C74.9949 318.113 77.1169 319.401 79.1438 320.814C84.7921 324.752 89.7032 329.664 93.6414 335.312C95.0546 337.339 96.3428 339.461 97.494 341.667C100.083 346.626 101.983 352.01 103.068 357.693C103.113 357.928 103.157 358.163 103.199 358.398C103.58 360.534 106.643 360.534 107.024 358.398C107.066 358.163 107.109 357.928 107.154 357.693C108.24 352.01 110.139 346.626 112.728 341.667C113.879 339.461 115.168 337.339 116.581 335.312C120.519 329.664 125.43 324.752 131.078 320.814C133.105 319.401 135.227 318.113 137.433 316.961C142.393 314.373 147.776 312.473 153.459 311.387C153.694 311.342 153.929 311.299 154.165 311.257C156.3 310.876 156.3 307.813 154.165 307.432C153.929 307.39 153.694 307.346 153.459 307.302C147.776 306.216 142.393 304.316 137.433 301.728C135.227 300.576 133.105 299.288 131.078 297.875C125.43 293.937 120.519 289.025 116.581 283.377C115.168 281.35 113.879 279.228 112.728 277.022C110.139 272.063 108.24 266.679 107.154 260.996C107.109 260.761 107.066 260.526 107.024 260.291C106.643 258.155 103.58 258.155 103.199 260.291C103.157 260.526 103.113 260.761 103.068 260.996C101.983 266.679 100.083 272.063 97.494 277.022C96.3428 279.228 95.0546 281.35 93.6414 283.377C89.7032 289.025 84.7921 293.937 79.1438 297.875C77.1169 299.288 74.9949 300.576 72.7887 301.728C67.8293 304.316 62.446 306.216 56.7628 307.302C56.5282 307.346 56.2931 307.39 56.057 307.432C53.922 307.813 53.922 310.876 56.057 311.257C56.2931 311.299 56.5282 311.342 56.7628 311.387Z" 
fill="#FFFFFF"  />
</svg>
