<svg width="669" height="742" viewBox="0 0 669 742" fill="none" xmlns="http://www.w3.org/2000/svg">
<path d="M429.539 4.94434C448.424 4.94442 465.53 12.61 477.881 24.9609C490.232 37.312 497.896 54.4174 497.896 73.3027C497.896 92.1092 490.243 109.19 477.658 121.804C465.043 134.075 448.267 141.48 429.765 141.567L419.163 141.617L426.015 149.707L511.436 250.577L513.349 252.835L516.242 252.217L645.703 224.561C647.069 224.288 648.56 225.059 649.163 226.421L649.271 226.702L662.938 269.817C663.444 271.517 662.51 273.228 660.945 273.746L660.832 273.783L660.721 273.826L494.016 338.072C492.852 338.491 491.74 338.239 490.994 337.653H490.995L418.654 280.185L414.453 275.875L411.111 281.198L358.806 364.53L357.519 366.581L358.35 368.855L418.256 532.816L418.26 532.827L418.264 532.837C418.479 533.418 418.501 534.033 418.277 534.744L418.238 534.869L418.206 534.995L366.835 734.47L366.826 734.503L366.818 734.537C366.462 736.003 364.849 737.05 363.18 736.641L295.817 719.264L295.783 719.255L295.748 719.246C294.323 718.9 293.294 717.368 293.612 715.75L293.647 715.594L337.657 544.881L338.137 543.021L337.234 541.325L293.216 458.551L290.08 452.654L285.355 457.375L190.061 552.606L190.06 552.607C189.324 553.343 188.255 553.65 187.177 553.419L187.145 553.411L187.111 553.405L7.37207 517.426H7.37305C5.7091 517.088 4.68002 515.52 5.00586 513.902L5.00781 513.896L18.6523 445.64L18.6582 445.612L18.6631 445.586C18.9524 444.05 20.5062 442.918 22.2305 443.235L160.157 470.827L163.624 471.521L165.401 468.464L241.882 336.971L242.22 336.39L242.39 335.739L276.752 204.771L278.372 198.598L271.988 198.572L208.343 198.323L205.41 198.312L203.994 200.879L150.416 298.007C149.677 299.339 148.087 299.909 146.765 299.46L146.706 299.44L146.646 299.422L107.775 287.315C106.086 286.761 105.258 285.034 105.727 283.513L105.726 283.512L154.695 126.111L154.699 126.1L154.702 126.088C155.068 124.892 156.29 124.011 157.544 124.011H357.544C357.939 124.011 358.365 124.1 358.77 124.284L358.954 124.368L359.146 124.438L377.558 131.042L382.645 122.814L381.247 121.478C368.919 109.127 361.274 92.0386 361.274 73.2715C361.274 54.3927 368.934 37.3784 381.29 25.0225L381.296 25.0166L381.303 25.0107C393.648 12.5785 410.747 4.94434 429.539 4.94434Z" fill="#323232" stroke="#FDF1F1" stroke-width="9.8892"/>
</svg>
