<svg width="686" height="604" viewBox="0 0 686 604" fill="none" xmlns="http://www.w3.org/2000/svg">
<path d="M118.855 90.1201C154.002 90.1202 182.469 118.614 182.469 153.734C182.469 188.882 154.003 217.348 118.855 217.348C83.7349 217.348 55.2413 188.881 55.2412 153.734C55.2412 118.615 83.7362 90.1201 118.855 90.1201Z" fill="#323232" stroke="white" stroke-width="9.8892"/>
<path d="M639.804 320.444C641.45 317.297 645.36 316.067 648.53 317.749L648.662 317.819L648.694 317.834C651.765 319.494 652.969 323.364 651.303 326.535L638.91 350.007C620.291 385.257 581.99 408.032 538.655 409.074H538.415C534.895 409.074 532.013 406.27 531.932 402.736V402.716L531.931 402.384C532.011 398.973 534.765 396.188 538.241 396.109H538.244C576.537 395.215 610.816 375.379 627.397 343.941L639.795 320.461L639.799 320.452L639.804 320.444Z" fill="#323232" stroke="white" stroke-width="9.8892"/>
<path d="M409.706 499.036C410.431 495.542 413.859 493.305 417.354 494.037V494.046C420.892 494.796 423.111 498.236 422.369 501.72L422.367 501.727C410.611 557.36 356.289 598.299 292.575 598.299C288.993 598.299 286.093 595.399 286.093 591.816C286.093 588.234 288.993 585.335 292.575 585.335C349.447 585.335 399.023 549.464 409.702 499.058L409.706 499.036Z" fill="#323232" stroke="white" stroke-width="9.8892"/>
<path d="M373.887 8.31445C387.216 3.96877 401.197 4.76836 415.763 5.60645V5.60742C426.844 6.2764 437.955 6.27648 449.01 5.60742L449.009 5.60645C463.56 4.76922 477.524 3.99521 490.889 8.31543V8.31641C504.794 12.8367 515.646 21.7379 526.912 31.0732C530.944 34.4234 535.124 37.899 539.446 41.0371L539.449 41.0391C543.844 44.2246 548.458 47.1615 552.942 50.0283L552.949 50.0332C565.26 57.8754 577.066 65.4711 585.542 77.1064V77.1074C593.961 88.6873 597.576 102.276 601.267 116.463V116.464C602.435 120.966 603.638 125.599 605.048 130.148L605.665 132.093C607.268 137.076 609.282 142.052 611.165 146.829L611.168 146.836L611.171 146.844C616.331 159.815 621.704 173.529 621.704 188.379C621.704 203.229 616.331 216.944 611.171 229.915L611.168 229.923L611.165 229.93C609.281 234.71 607.265 239.688 605.662 244.674C603.984 249.857 602.607 255.162 601.272 260.301C601.019 261.258 600.759 262.225 600.494 263.205C600.23 264.181 599.963 265.172 599.702 266.157L596.201 279.38L607.348 271.451C617.562 264.185 630.75 259.884 644.846 259.884H674.277L674.298 259.882C677.843 259.925 680.698 262.807 680.698 266.362C680.698 269.944 677.799 272.844 674.217 272.844H644.908C627.749 272.844 611.15 280.831 603.854 293.937L603.513 294.564L588.345 323.329C579.32 340.426 558.74 351.972 535.5 351.972C527.215 351.972 519.35 353.854 512.556 357.077L512.182 357.254L511.843 357.491C509.342 359.239 506.732 360.846 503.981 362.43L503.634 362.63L503.323 362.883C497.596 367.555 493.112 373.64 491.462 380.798L486.72 401.309V401.31C481.642 423.293 458.21 440.184 430.034 440.184H414.951C394.251 440.184 374.523 451.896 370.807 469.5L366.493 489.896C360.321 519.048 329.704 541.165 292.571 541.165H292.57L11.4258 541.192C7.84384 541.192 4.94438 538.294 4.94434 534.712C4.94434 532.118 6.51925 529.835 8.8457 528.812L14.0283 526.532L11.0732 521.704C1.45249 505.984 3.34289 485.171 16.8936 471.62L80.5674 407.947L82.0156 406.499V279.305C82.0158 256.841 100.312 238.544 122.776 238.544H122.795C138.751 238.485 156.041 236.353 171.125 232.96C186.024 229.609 199.45 224.881 207.201 219.265C217.221 212.008 229.062 209.6 239.595 212.333L247.663 214.427L245.633 206.343C244.143 200.409 243.096 194.503 243.096 188.408C243.096 173.529 248.47 159.813 253.629 146.843C255.558 142.021 257.534 137.073 259.136 132.093C260.818 126.927 262.197 121.609 263.532 116.465L263.533 116.466C267.224 102.279 270.837 88.6895 279.255 77.1104L279.256 77.1113C287.732 65.4734 299.539 57.8763 311.852 50.0332L311.858 50.0293C316.329 47.1717 320.987 44.2247 325.364 41.0303L325.363 41.0293C329.684 37.8921 333.847 34.4079 337.88 31.0801L337.887 31.0752L337.893 31.0703C349.122 21.7412 360.006 12.8355 373.886 8.31543L373.887 8.31445ZM261.64 279.398C260.462 280.549 259.364 281.565 258.188 282.478C232.018 302.645 196.429 312.082 167.745 316.41L163.538 317.045V358.346L166.415 359.67L221.719 385.123L221.723 385.124C244.217 395.457 258.748 418.153 258.748 442.904V500.408C258.748 507.798 256.609 514.688 253.055 520.766L248.703 528.206H292.573C321.687 528.206 348.697 511.438 353.8 487.23L358.113 466.839C362.86 444.429 386.306 427.225 414.949 427.225H430.032C450.276 427.225 469.694 415.922 473.946 398.907C473.993 398.769 474.023 398.655 474.027 398.641C474.038 398.601 474.047 398.567 474.052 398.547C474.063 398.505 474.073 398.464 474.08 398.434C474.096 398.369 474.115 398.29 474.135 398.205C474.176 398.032 474.232 397.792 474.3 397.501C474.435 396.916 474.623 396.097 474.846 395.126C475.293 393.178 475.878 390.622 476.468 388.054C477.057 385.489 477.646 382.932 478.097 381.004C478.322 380.038 478.51 379.242 478.645 378.685C478.655 378.64 478.666 378.597 478.676 378.557L483.383 371.026L473.769 371.64C471.15 371.807 468.576 371.915 466.028 371.915C460.401 371.915 454.775 371.582 449.041 371.238C437.99 370.57 426.881 370.57 415.83 371.238C401.25 372.104 387.283 372.879 373.919 368.53H373.92C360.042 364.01 349.162 355.081 337.894 345.743L337.886 345.737L334.834 343.218C331.757 340.685 328.603 338.135 325.36 335.78L325.357 335.778L323.699 334.595C319.811 331.859 315.788 329.297 311.864 326.789L311.857 326.784L309.556 325.315C298.082 317.976 287.207 310.617 279.261 299.706C275.123 294.013 272.145 287.8 269.737 281.233L267.106 274.059L261.64 279.398ZM177.223 454.361L174.343 453.038L164.078 448.321L163.839 439.895L75.5557 528.178H187.268L182.917 520.737C179.363 514.659 177.223 507.77 177.223 500.38V454.361Z" fill="#323232" stroke="white" stroke-width="9.8892"/>
</svg>
