<svg width="600" height="600" viewBox="0 0 600 600" fill="none" xmlns="http://www.w3.org/2000/svg">
<g clip-path="url(#clip0_837_288)">
<path d="M106.93 199.412C159.419 203.677 247.873 199.927 339.156 174.144M574.724 33.5294L599.785 12.3529M574.724 33.5294L581.407 0M574.724 33.5294C511.574 107.04 424.139 150.14 339.156 174.144M284.023 490.588C284.023 356.471 312.425 192.047 339.156 174.144" stroke="white" stroke-width="10.5882" stroke-dasharray="3.53 3.53"/>
<path d="M0 409.41C65.714 414.704 200.483 422.821 213.849 412.939C230.556 400.586 232.227 363.527 238.909 374.115C245.592 384.704 242.251 460.589 238.909 458.824C235.568 457.059 223.873 425.295 208.837 423.53C196.808 422.118 66.2709 414.705 0 409.41Z" stroke="white" stroke-width="14.1176" stroke-dasharray="3.53 3.53"/>
</g>
<defs>
<clipPath id="clip0_837_288">
<rect width="600" height="600" fill="white"/>
</clipPath>
</defs>
</svg>
