<svg width="554" height="705" viewBox="0 0 554 705" fill="none" xmlns="http://www.w3.org/2000/svg">
<path d="M104.568 4.9541C131.33 4.9541 156.115 20.847 174.425 47.6797C192.432 74.0687 203.832 110.635 204.184 151.312L204.192 153.253C204.154 220.606 174 276.275 134.12 294.864L131.052 296.295L131.275 299.673L154.298 647.15L154.299 647.155C155.26 661.423 151.23 673.899 142.512 684.235C133.809 694.552 123.03 699.669 110.52 699.669H98.583C86.0723 699.669 75.2947 694.552 66.5918 684.235C57.8793 673.907 53.8791 661.428 54.8057 647.143L54.8047 647.142L77.8281 299.673L78.0518 296.292L74.9805 294.863C35.105 276.31 4.94434 220.602 4.94434 153.253C4.94434 111.798 16.4194 74.4875 34.7129 47.6797C53.0233 20.8471 77.8079 4.95413 104.568 4.9541ZM534.09 4.94434C542.291 4.94434 548.924 11.5767 548.924 19.7783L548.886 182.336V255.463C548.886 269.033 537.772 280.147 524.201 280.147H490.641L490.99 285.419L514.94 647.146C515.865 661.428 511.865 673.905 503.154 684.231C494.451 694.548 483.673 699.665 471.162 699.665H459.226C446.715 699.665 435.937 694.548 427.234 684.231C418.516 673.895 414.487 661.419 415.447 647.151V647.146L439.398 285.419L439.747 280.147H403.02C389.45 280.147 378.335 269.03 378.335 255.458V19.7783C378.335 11.5769 384.967 4.94437 393.169 4.94434C401.37 4.94434 408.003 11.5767 408.003 19.7783V186.432H448.796V19.7783C448.796 11.5769 455.428 4.94434 463.63 4.94434C471.831 4.9445 478.463 11.5768 478.463 19.7783V186.432H519.256V19.7783C519.256 11.577 525.888 4.94449 534.09 4.94434Z" fill="#323232" stroke="white" stroke-width="9.8892"/>
</svg>
