<svg width="553" height="553" viewBox="0 0 553 553" fill="none" xmlns="http://www.w3.org/2000/svg">
<path fill-rule="evenodd" clip-rule="evenodd" d="M409.093 143.346C484.674 143.346 545.961 204.626 545.961 280.213C545.961 355.794 484.68 417.081 409.093 417.081C381.575 417.081 355.934 408.956 334.474 394.962V306.374C334.474 281.462 314.141 261.105 289.205 261.105H273.544C282.865 194.589 339.994 143.352 409.095 143.352L409.093 143.346ZM449.056 293.076C453.775 290.353 456.476 285.657 456.476 280.21C456.476 274.762 453.775 270.066 449.056 267.343L384.018 229.775C379.299 227.051 373.875 227.051 369.155 229.775C364.436 232.498 361.735 237.195 361.735 242.642V317.777C361.735 323.225 364.435 327.921 369.155 330.644C373.875 333.368 379.298 333.368 384.018 330.644L449.056 293.076ZM42.8291 275.584C25.9001 275.584 12.0234 289.437 12.0234 306.389V516.397C12.0234 533.326 25.8767 547.203 42.8291 547.203H289.227C306.179 547.203 320.032 533.35 320.032 516.397L320.009 306.371C320.009 289.442 306.156 275.566 289.203 275.566L42.8291 275.584ZM171.708 309.982C188.332 309.982 201.809 323.46 201.809 340.083C201.809 356.707 188.332 370.184 171.708 370.184C155.085 370.184 141.607 356.707 141.607 340.083C141.607 323.46 155.085 309.982 171.708 309.982ZM33.7167 494.42L79.7846 431.636C88.2136 420.154 105.214 420.154 113.643 431.636L144.777 474.041L107.022 525.485H42.8255C40.4071 525.485 38.1295 524.499 36.4155 522.785C34.7015 521.071 33.7153 518.794 33.7153 516.375L33.7167 494.42ZM124.938 525.484H289.203C291.645 525.484 293.899 524.498 295.613 522.784C297.327 521.069 298.313 518.792 298.313 516.373L298.336 410.011L272.743 375.143C263.422 362.464 244.638 362.464 235.316 375.143L124.938 525.484ZM152.409 6.01232C148.911 6.01232 146.023 8.45424 145.318 11.8589L120.265 139.92C102.279 121.629 68.3507 120.174 47.7376 135.506C27.5681 150.51 27.5681 175.845 47.7376 190.848C66.5685 204.842 96.3644 204.842 115.198 190.848C124.331 184.039 130.084 174.553 130.319 163.893L148.563 70.6284H274.719L261.171 139.916C243.185 121.625 209.257 120.169 188.644 135.501C168.474 150.505 168.474 175.84 188.644 190.844C207.475 204.837 237.271 204.837 256.104 190.844C265.237 184.034 270.99 174.549 271.225 163.888L300.364 14.9811C301.42 10.1443 297.898 6.01172 293.343 6.01172L152.409 6.01232Z" fill="black"/>
</svg>
