<svg width="643" height="643" viewBox="0 0 643 643" fill="none" xmlns="http://www.w3.org/2000/svg">
<mask id="path-1-inside-1_758_641" fill="white">
<path fill-rule="evenodd" clip-rule="evenodd" d="M288.139 476.528C288.139 508.583 296.146 538.754 310.303 565.185H11.0821C4.95926 565.185 0 560.226 0 554.103V11.0821C0 4.95926 4.95926 0 11.0821 0H410.039C416.162 0 421.121 4.95926 421.121 11.0821V57.4611C420.788 56.4637 420.456 55.4386 420.124 54.4135C417.658 46.4067 410.898 40.5057 402.642 39.0921C394.385 37.7069 386.074 41.0592 381.087 47.7919C381.087 47.8196 381.059 47.8196 381.059 47.8473C381.059 47.8473 379.369 50.1745 376.737 54.4412C376.238 48.7893 371.501 44.3286 365.71 44.3286H55.4107C49.2878 44.3286 44.3285 49.2879 44.3285 55.4107V155.146C44.3285 161.269 49.2878 166.228 55.4107 166.228H345.624C346.289 173.571 347.619 180.995 349.78 188.393H321.382C315.259 188.393 310.3 193.352 310.3 199.475V243.803C310.3 249.926 315.259 254.885 321.382 254.885H365.711C371.833 254.885 376.793 249.926 376.793 243.803V232.195C388.983 242.861 404.083 249.788 421.121 252.946V296.444C405.357 301.292 390.479 308.163 376.793 316.724V288.16C376.793 282.037 371.833 277.078 365.711 277.078H321.382C315.259 277.078 310.3 282.037 310.3 288.16V332.489C310.3 338.612 315.259 343.571 321.382 343.571H343.131C309.164 377.648 288.136 424.667 288.136 476.556V465.474C288.136 459.351 283.176 454.392 277.054 454.392H232.725C226.602 454.392 221.643 459.351 221.643 465.474V509.803C221.643 515.926 226.602 520.885 232.725 520.885H277.054C283.176 520.885 288.136 515.926 288.136 509.803L288.139 476.528ZM288.139 288.135C288.139 282.012 283.18 277.053 277.057 277.053H232.728C226.605 277.053 221.646 282.012 221.646 288.135V332.464C221.646 338.587 226.605 343.546 232.728 343.546H277.057C283.18 343.546 288.139 338.587 288.139 332.464V288.135ZM265.975 299.217V321.382H243.81V299.217H265.975ZM110.825 465.453C110.825 459.33 105.866 454.371 99.7427 454.371H55.4142C49.2913 454.371 44.3321 459.33 44.3321 465.453V509.781C44.3321 515.904 49.2913 520.863 55.4142 520.863H99.7427C105.866 520.863 110.825 515.904 110.825 509.781V465.453ZM88.6606 476.535V498.699H66.4963V476.535H88.6606ZM199.482 288.142C199.482 282.02 194.523 277.06 188.4 277.06H144.071C137.948 277.06 132.989 282.02 132.989 288.142V332.471C132.989 338.594 137.948 343.553 144.071 343.553H188.4C194.523 343.553 199.482 338.594 199.482 332.471V288.142ZM177.318 299.225V321.389H155.153V299.225H177.318ZM199.482 465.46C199.482 459.337 194.523 454.378 188.4 454.378H144.071C137.948 454.378 132.989 459.337 132.989 465.46V509.788C132.989 515.911 137.948 520.871 144.071 520.871H188.4C194.523 520.871 199.482 515.911 199.482 509.788V465.46ZM177.318 476.542V498.706H155.153V476.542H177.318ZM110.825 376.806C110.825 370.684 105.866 365.724 99.7427 365.724H55.4142C49.2913 365.724 44.3321 370.684 44.3321 376.806V421.135C44.3321 427.258 49.2913 432.217 55.4142 432.217H99.7427C105.866 432.217 110.825 427.258 110.825 421.135V376.806ZM88.6606 387.889V410.053H66.4963V387.889H88.6606ZM110.825 288.153C110.825 282.03 105.866 277.071 99.7427 277.071H55.4142C49.2913 277.071 44.3321 282.03 44.3321 288.153V332.481C44.3321 338.604 49.2913 343.564 55.4142 343.564H99.7427C105.866 343.564 110.825 338.604 110.825 332.481V288.153ZM88.6606 299.235V321.399H66.4963V299.235H88.6606ZM199.482 376.814C199.482 370.691 194.523 365.731 188.4 365.731H144.071C137.948 365.731 132.989 370.691 132.989 376.814V421.142C132.989 427.265 137.948 432.224 144.071 432.224H188.4C194.523 432.224 199.482 427.265 199.482 421.142V376.814ZM177.318 387.896V410.06H155.153V387.896H177.318ZM199.482 199.503C199.482 193.38 194.523 188.421 188.4 188.421H55.4142C49.2913 188.421 44.3321 193.38 44.3321 199.503V243.832C44.3321 249.954 49.2913 254.914 55.4142 254.914H188.4C194.523 254.914 199.482 249.954 199.482 243.832V199.503ZM177.318 210.585V232.749H66.4963V210.585H177.318ZM288.139 199.503C288.139 193.38 283.18 188.421 277.057 188.421H232.728C226.605 188.421 221.646 193.38 221.646 199.503V243.832C221.646 249.954 226.605 254.914 232.728 254.914H277.057C283.18 254.914 288.139 249.954 288.139 243.832V199.503ZM265.975 210.585V232.749H243.81V210.585H265.975ZM288.139 376.821C288.139 370.698 283.18 365.739 277.057 365.739H232.728C226.605 365.739 221.646 370.698 221.646 376.821V421.149C221.646 427.272 226.605 432.231 232.728 432.231H277.057C283.18 432.231 288.139 427.272 288.139 421.149V376.821ZM265.975 387.903V410.067H243.81V387.903H265.975ZM265.975 476.56V498.724H243.81V476.56H265.975ZM354.632 299.246V321.41H332.467V299.246H354.632ZM428.132 91.2068C443.287 72.1732 450.462 47.5712 454.508 20.5585C455.062 16.8183 457.5 13.6045 460.991 12.0531C464.454 10.5293 468.471 10.8618 471.63 12.9674C471.63 12.9674 556.074 68.7383 531.723 185.154C523.328 225.215 489.057 243.833 443.286 243.833C403.889 243.833 372.14 224.606 360.643 186.04C341.304 121.293 390.038 54.388 390.038 54.388C392.532 51.0356 396.687 49.3456 400.815 50.0382C404.943 50.7309 408.324 53.6953 409.543 57.6847C413.283 69.7917 418.408 80.1816 424.421 87.3018C425.64 88.7425 426.859 90.0447 428.133 91.1805L428.132 91.2068ZM424.53 137.779C422.397 134.704 418.878 132.903 415.138 133.014C411.398 133.097 407.963 135.092 405.995 138.25C399.706 148.418 397.6 169.419 400.149 179.947C404.499 197.844 422.369 210.589 443.286 210.589C460.352 210.589 480.301 200.31 484.789 179.697C490.552 153.266 486.756 126.226 479.387 111.459C477.614 107.885 474.067 105.558 470.078 105.336C466.116 105.114 462.32 107.026 460.159 110.378C454.895 118.496 449.936 126.918 444.949 133.956C442.04 138.028 439.242 141.602 436.277 144.013C435.114 144.982 434.144 145.952 432.87 145.869C431.817 145.786 430.903 144.982 429.767 143.957C428.077 142.461 426.359 140.383 424.558 137.779L424.53 137.779ZM421.095 164.82C425.417 167.23 429.572 168.117 433.424 168.034C441.569 167.867 449.825 162.991 457.361 154.126C459.938 151.078 462.542 147.532 465.119 143.708C465.978 153.322 465.479 164.238 463.152 174.988C461.074 184.519 451.211 188.425 443.315 188.425C433.202 188.425 423.81 183.382 421.704 174.738C421.095 172.189 420.873 168.587 421.095 164.82ZM354.657 101.125C350.224 114.119 346.706 128.747 345.542 144.096H66.5205V66.5176H354.656L354.657 101.125ZM354.657 210.592V232.756H332.493V210.592H354.657ZM476.564 310.327C568.299 310.327 642.8 384.827 642.8 476.563C642.8 568.298 568.299 642.798 476.564 642.798C384.829 642.798 310.329 568.298 310.329 476.563C310.329 384.827 384.829 310.327 476.564 310.327ZM520.227 405.19C526.904 386.628 520.366 365.655 520.366 365.655C518.593 360.28 513.08 357.094 507.566 358.257C507.566 358.257 480.636 364.297 469.222 384.051C467.643 386.794 466.424 389.675 465.537 392.584C459.138 384.466 452.627 376.792 446.061 369.45C441.988 364.879 434.978 364.491 430.407 368.564C425.836 372.636 425.448 379.646 429.521 384.217C435.367 390.755 441.157 397.571 446.892 404.774C445.728 404.635 444.565 404.552 443.318 404.552C396.745 404.552 376.825 441.095 376.825 487.67C376.825 511.164 390.567 534.658 406.58 549.813V549.841C420.295 576.715 444.121 592.95 476.537 592.95C508.979 592.95 532.806 576.714 546.52 549.813C562.534 534.658 576.276 511.164 576.276 487.67C576.276 444.727 559.32 410.319 520.2 405.219L520.227 405.19ZM425.613 538.232C424.975 536.958 424.117 535.794 423.064 534.825C410.597 523.549 399.016 505.761 399.016 487.643C399.016 454.674 410.375 426.691 443.344 426.691C446.946 426.691 449.356 428.99 452.431 430.763C458.665 434.337 465.84 437.773 476.59 437.773C487.339 437.773 494.487 434.337 500.749 430.763C503.824 428.99 506.262 426.691 509.836 426.691C542.805 426.691 554.164 454.673 554.164 487.643C554.164 505.762 542.583 523.549 530.116 534.825C529.063 535.794 528.204 536.93 527.567 538.232C517.815 558.402 500.499 570.758 476.589 570.758C452.707 570.758 435.365 558.402 425.613 538.232ZM432.262 487.643C432.262 479.885 432.539 472.155 434.783 466.144C435.947 463.041 437.748 460.519 441.349 460.048C447.417 459.245 451.683 453.676 450.88 447.609C450.077 441.541 444.508 437.275 438.441 438.078C425.641 439.768 418.105 447.387 414.005 458.441C410.985 466.614 410.098 477.059 410.098 487.643C410.098 493.766 415.057 498.725 421.18 498.725C427.303 498.725 432.262 493.765 432.262 487.643ZM501.387 383.722C501.719 388.959 501.137 395.22 498.007 400.678C494.876 406.108 489.723 409.737 485.013 412.065C484.681 406.829 485.262 400.567 488.393 395.137C491.524 389.707 496.677 386.078 501.387 383.722Z"/>
</mask>
<path fill-rule="evenodd" clip-rule="evenodd" d="M288.139 476.528C288.139 508.583 296.146 538.754 310.303 565.185H11.0821C4.95926 565.185 0 560.226 0 554.103V11.0821C0 4.95926 4.95926 0 11.0821 0H410.039C416.162 0 421.121 4.95926 421.121 11.0821V57.4611C420.788 56.4637 420.456 55.4386 420.124 54.4135C417.658 46.4067 410.898 40.5057 402.642 39.0921C394.385 37.7069 386.074 41.0592 381.087 47.7919C381.087 47.8196 381.059 47.8196 381.059 47.8473C381.059 47.8473 379.369 50.1745 376.737 54.4412C376.238 48.7893 371.501 44.3286 365.71 44.3286H55.4107C49.2878 44.3286 44.3285 49.2879 44.3285 55.4107V155.146C44.3285 161.269 49.2878 166.228 55.4107 166.228H345.624C346.289 173.571 347.619 180.995 349.78 188.393H321.382C315.259 188.393 310.3 193.352 310.3 199.475V243.803C310.3 249.926 315.259 254.885 321.382 254.885H365.711C371.833 254.885 376.793 249.926 376.793 243.803V232.195C388.983 242.861 404.083 249.788 421.121 252.946V296.444C405.357 301.292 390.479 308.163 376.793 316.724V288.16C376.793 282.037 371.833 277.078 365.711 277.078H321.382C315.259 277.078 310.3 282.037 310.3 288.16V332.489C310.3 338.612 315.259 343.571 321.382 343.571H343.131C309.164 377.648 288.136 424.667 288.136 476.556V465.474C288.136 459.351 283.176 454.392 277.054 454.392H232.725C226.602 454.392 221.643 459.351 221.643 465.474V509.803C221.643 515.926 226.602 520.885 232.725 520.885H277.054C283.176 520.885 288.136 515.926 288.136 509.803L288.139 476.528ZM288.139 288.135C288.139 282.012 283.18 277.053 277.057 277.053H232.728C226.605 277.053 221.646 282.012 221.646 288.135V332.464C221.646 338.587 226.605 343.546 232.728 343.546H277.057C283.18 343.546 288.139 338.587 288.139 332.464V288.135ZM265.975 299.217V321.382H243.81V299.217H265.975ZM110.825 465.453C110.825 459.33 105.866 454.371 99.7427 454.371H55.4142C49.2913 454.371 44.3321 459.33 44.3321 465.453V509.781C44.3321 515.904 49.2913 520.863 55.4142 520.863H99.7427C105.866 520.863 110.825 515.904 110.825 509.781V465.453ZM88.6606 476.535V498.699H66.4963V476.535H88.6606ZM199.482 288.142C199.482 282.02 194.523 277.06 188.4 277.06H144.071C137.948 277.06 132.989 282.02 132.989 288.142V332.471C132.989 338.594 137.948 343.553 144.071 343.553H188.4C194.523 343.553 199.482 338.594 199.482 332.471V288.142ZM177.318 299.225V321.389H155.153V299.225H177.318ZM199.482 465.46C199.482 459.337 194.523 454.378 188.4 454.378H144.071C137.948 454.378 132.989 459.337 132.989 465.46V509.788C132.989 515.911 137.948 520.871 144.071 520.871H188.4C194.523 520.871 199.482 515.911 199.482 509.788V465.46ZM177.318 476.542V498.706H155.153V476.542H177.318ZM110.825 376.806C110.825 370.684 105.866 365.724 99.7427 365.724H55.4142C49.2913 365.724 44.3321 370.684 44.3321 376.806V421.135C44.3321 427.258 49.2913 432.217 55.4142 432.217H99.7427C105.866 432.217 110.825 427.258 110.825 421.135V376.806ZM88.6606 387.889V410.053H66.4963V387.889H88.6606ZM110.825 288.153C110.825 282.03 105.866 277.071 99.7427 277.071H55.4142C49.2913 277.071 44.3321 282.03 44.3321 288.153V332.481C44.3321 338.604 49.2913 343.564 55.4142 343.564H99.7427C105.866 343.564 110.825 338.604 110.825 332.481V288.153ZM88.6606 299.235V321.399H66.4963V299.235H88.6606ZM199.482 376.814C199.482 370.691 194.523 365.731 188.4 365.731H144.071C137.948 365.731 132.989 370.691 132.989 376.814V421.142C132.989 427.265 137.948 432.224 144.071 432.224H188.4C194.523 432.224 199.482 427.265 199.482 421.142V376.814ZM177.318 387.896V410.06H155.153V387.896H177.318ZM199.482 199.503C199.482 193.38 194.523 188.421 188.4 188.421H55.4142C49.2913 188.421 44.3321 193.38 44.3321 199.503V243.832C44.3321 249.954 49.2913 254.914 55.4142 254.914H188.4C194.523 254.914 199.482 249.954 199.482 243.832V199.503ZM177.318 210.585V232.749H66.4963V210.585H177.318ZM288.139 199.503C288.139 193.38 283.18 188.421 277.057 188.421H232.728C226.605 188.421 221.646 193.38 221.646 199.503V243.832C221.646 249.954 226.605 254.914 232.728 254.914H277.057C283.18 254.914 288.139 249.954 288.139 243.832V199.503ZM265.975 210.585V232.749H243.81V210.585H265.975ZM288.139 376.821C288.139 370.698 283.18 365.739 277.057 365.739H232.728C226.605 365.739 221.646 370.698 221.646 376.821V421.149C221.646 427.272 226.605 432.231 232.728 432.231H277.057C283.18 432.231 288.139 427.272 288.139 421.149V376.821ZM265.975 387.903V410.067H243.81V387.903H265.975ZM265.975 476.56V498.724H243.81V476.56H265.975ZM354.632 299.246V321.41H332.467V299.246H354.632ZM428.132 91.2068C443.287 72.1732 450.462 47.5712 454.508 20.5585C455.062 16.8183 457.5 13.6045 460.991 12.0531C464.454 10.5293 468.471 10.8618 471.63 12.9674C471.63 12.9674 556.074 68.7383 531.723 185.154C523.328 225.215 489.057 243.833 443.286 243.833C403.889 243.833 372.14 224.606 360.643 186.04C341.304 121.293 390.038 54.388 390.038 54.388C392.532 51.0356 396.687 49.3456 400.815 50.0382C404.943 50.7309 408.324 53.6953 409.543 57.6847C413.283 69.7917 418.408 80.1816 424.421 87.3018C425.64 88.7425 426.859 90.0447 428.133 91.1805L428.132 91.2068ZM424.53 137.779C422.397 134.704 418.878 132.903 415.138 133.014C411.398 133.097 407.963 135.092 405.995 138.25C399.706 148.418 397.6 169.419 400.149 179.947C404.499 197.844 422.369 210.589 443.286 210.589C460.352 210.589 480.301 200.31 484.789 179.697C490.552 153.266 486.756 126.226 479.387 111.459C477.614 107.885 474.067 105.558 470.078 105.336C466.116 105.114 462.32 107.026 460.159 110.378C454.895 118.496 449.936 126.918 444.949 133.956C442.04 138.028 439.242 141.602 436.277 144.013C435.114 144.982 434.144 145.952 432.87 145.869C431.817 145.786 430.903 144.982 429.767 143.957C428.077 142.461 426.359 140.383 424.558 137.779L424.53 137.779ZM421.095 164.82C425.417 167.23 429.572 168.117 433.424 168.034C441.569 167.867 449.825 162.991 457.361 154.126C459.938 151.078 462.542 147.532 465.119 143.708C465.978 153.322 465.479 164.238 463.152 174.988C461.074 184.519 451.211 188.425 443.315 188.425C433.202 188.425 423.81 183.382 421.704 174.738C421.095 172.189 420.873 168.587 421.095 164.82ZM354.657 101.125C350.224 114.119 346.706 128.747 345.542 144.096H66.5205V66.5176H354.656L354.657 101.125ZM354.657 210.592V232.756H332.493V210.592H354.657ZM476.564 310.327C568.299 310.327 642.8 384.827 642.8 476.563C642.8 568.298 568.299 642.798 476.564 642.798C384.829 642.798 310.329 568.298 310.329 476.563C310.329 384.827 384.829 310.327 476.564 310.327ZM520.227 405.19C526.904 386.628 520.366 365.655 520.366 365.655C518.593 360.28 513.08 357.094 507.566 358.257C507.566 358.257 480.636 364.297 469.222 384.051C467.643 386.794 466.424 389.675 465.537 392.584C459.138 384.466 452.627 376.792 446.061 369.45C441.988 364.879 434.978 364.491 430.407 368.564C425.836 372.636 425.448 379.646 429.521 384.217C435.367 390.755 441.157 397.571 446.892 404.774C445.728 404.635 444.565 404.552 443.318 404.552C396.745 404.552 376.825 441.095 376.825 487.67C376.825 511.164 390.567 534.658 406.58 549.813V549.841C420.295 576.715 444.121 592.95 476.537 592.95C508.979 592.95 532.806 576.714 546.52 549.813C562.534 534.658 576.276 511.164 576.276 487.67C576.276 444.727 559.32 410.319 520.2 405.219L520.227 405.19ZM425.613 538.232C424.975 536.958 424.117 535.794 423.064 534.825C410.597 523.549 399.016 505.761 399.016 487.643C399.016 454.674 410.375 426.691 443.344 426.691C446.946 426.691 449.356 428.99 452.431 430.763C458.665 434.337 465.84 437.773 476.59 437.773C487.339 437.773 494.487 434.337 500.749 430.763C503.824 428.99 506.262 426.691 509.836 426.691C542.805 426.691 554.164 454.673 554.164 487.643C554.164 505.762 542.583 523.549 530.116 534.825C529.063 535.794 528.204 536.93 527.567 538.232C517.815 558.402 500.499 570.758 476.589 570.758C452.707 570.758 435.365 558.402 425.613 538.232ZM432.262 487.643C432.262 479.885 432.539 472.155 434.783 466.144C435.947 463.041 437.748 460.519 441.349 460.048C447.417 459.245 451.683 453.676 450.88 447.609C450.077 441.541 444.508 437.275 438.441 438.078C425.641 439.768 418.105 447.387 414.005 458.441C410.985 466.614 410.098 477.059 410.098 487.643C410.098 493.766 415.057 498.725 421.18 498.725C427.303 498.725 432.262 493.765 432.262 487.643ZM501.387 383.722C501.719 388.959 501.137 395.22 498.007 400.678C494.876 406.108 489.723 409.737 485.013 412.065C484.681 406.829 485.262 400.567 488.393 395.137C491.524 389.707 496.677 386.078 501.387 383.722Z" fill="#323232" stroke="white" stroke-width="19.7784" mask="url(#path-1-inside-1_758_641)"/>
</svg>
