<svg width="1072" height="605" viewBox="0 0 1072 605" fill="none" xmlns="http://www.w3.org/2000/svg">
<path d="M2.01562 521.203V12.0808C2.01562 6.52087 6.52282 2.01367 12.0827 2.01367H489.473C497.085 2.01367 504.397 4.9838 509.853 10.2922L567.333 66.2184C572.789 71.5268 580.1 74.4969 587.712 74.4969H1039.91C1056.05 74.4969 1069.13 87.5811 1069.13 103.721V522.454C1069.13 538.594 1056.05 551.678 1039.91 551.678H519.156C511.603 551.678 504.344 554.602 498.9 559.837L463.521 593.855C458.077 599.09 450.817 602.014 443.265 602.014H84.3432C76.7391 602.014 69.4344 599.05 63.9801 593.751L10.8769 542.165C5.21205 536.662 2.01562 529.101 2.01562 521.203Z" stroke="#F2DBDB" stroke-width="4.02684"/>
</svg>
