<svg width="405" height="405" viewBox="0 0 405 405" fill="none" xmlns="http://www.w3.org/2000/svg">
<g clip-path="url(#clip0_851_246)">
<rect width="405" height="405" fill="black"/>
<path d="M59.5557 229.709C59.5557 229.817 59.5377 230.177 59.5017 230.79C59.4657 231.402 59.2676 232.176 58.9075 233.112C58.5834 234.013 58.0252 235.003 57.233 236.083C56.4407 237.164 55.2703 238.208 53.7218 239.216C53.3256 240.045 52.9295 240.693 52.5334 241.161C52.1372 241.629 51.9032 241.899 51.8311 241.971L51.399 242.565L50.5887 242.457C49.3283 242.277 48.2119 242.133 47.2396 242.025C46.3033 241.917 45.439 241.863 44.6467 241.863C43.8184 241.863 43.0442 241.917 42.3239 242.025C41.6037 242.133 40.8654 242.295 40.1092 242.511C39.3889 242.728 38.6147 243.016 37.7864 243.376C36.9941 243.7 36.1118 244.096 35.1395 244.564L34.3292 244.672C33.3929 244.672 32.4746 244.636 31.5743 244.564C30.71 244.456 29.9357 244.402 29.2515 244.402C28.2792 244.402 27.3969 244.456 26.6046 244.564C25.8483 244.672 25.0921 244.852 24.3358 245.104C23.5796 245.356 22.7693 245.681 21.905 246.077C21.0407 246.473 20.0324 246.959 18.88 247.535L18.2858 247.859L17.8536 247.751C16.4852 247.283 15.2788 246.563 14.2344 245.591C13.3341 244.762 12.5058 243.592 11.7496 242.079C11.0293 240.567 10.6692 238.586 10.6692 236.137C10.6692 234.625 10.8673 233.346 11.2634 232.302C11.6955 231.258 12.1637 230.411 12.6679 229.763C13.2081 229.115 13.6942 228.647 14.1264 228.359C14.5585 228.035 14.8106 227.855 14.8826 227.818L15.3148 227.494L15.855 227.602C16.9713 227.818 17.9437 227.981 18.7719 228.089C19.6002 228.197 20.3745 228.251 21.0947 228.251C21.7429 228.251 22.3732 228.215 22.9854 228.143C23.6336 228.035 24.3178 227.891 25.0381 227.71C25.7583 227.494 26.5506 227.242 27.4149 226.954C28.3152 226.63 29.3775 226.252 30.6019 225.82L31.0341 225.604L31.4662 225.712C33.1588 226.072 34.6713 226.306 36.0038 226.414C35.5716 225.73 35.0494 225.064 34.4372 224.415C33.861 223.731 33.2488 223.029 32.6006 222.309L32.2225 221.768C31.7183 219.932 31.1601 218.257 30.5479 216.745C29.9357 215.196 29.2155 213.756 28.3872 212.423C27.5949 211.091 26.6946 209.83 25.6863 208.642C24.6779 207.454 23.5436 206.283 22.2831 205.131L21.851 204.807V204.375C21.2388 200.701 20.1224 197.352 18.5018 194.327C16.8813 191.266 14.7206 188.493 12.0197 186.008L11.5335 185.576V184.928C11.5335 184.892 11.5695 184.73 11.6415 184.442C11.7136 184.154 11.8396 183.776 12.0197 183.307C12.1997 182.839 12.4698 182.299 12.8299 181.687C13.1901 181.075 13.6582 180.444 14.2344 179.796C14.1624 179.616 14.1264 179.454 14.1264 179.31C14.1264 179.166 14.1264 179.004 14.1264 178.824C14.1264 177.311 14.3244 176.033 14.7206 174.989C15.1527 173.944 15.6209 173.098 16.125 172.45C16.6292 171.802 17.0974 171.333 17.5295 171.045C17.9617 170.721 18.2138 170.541 18.2858 170.505L18.7719 170.289L19.3121 170.397C21.3288 170.865 23.0214 171.099 24.3898 171.099C25.0381 171.099 25.6503 171.063 26.2265 170.991C26.8027 170.883 27.4149 170.739 28.0631 170.559C28.7473 170.343 29.4856 170.109 30.2778 169.857C31.0701 169.605 31.9884 169.317 33.0328 168.993C33.2128 168.921 33.3749 168.867 33.5189 168.831C33.663 168.759 33.825 168.668 34.0051 168.56L34.4372 168.29L34.9234 168.398C36.2559 168.686 37.4263 168.903 38.4346 169.047C39.4789 169.155 40.4333 169.209 41.2976 169.209C42.9181 169.209 44.4846 168.975 45.9972 168.506C47.5097 168.038 49.3463 167.318 51.507 166.346L52.1552 165.968L52.8035 166.346C52.8395 166.382 53.0735 166.544 53.5057 166.832C53.9739 167.12 54.496 167.588 55.0722 168.236C55.6484 168.885 56.2246 169.731 56.8008 170.775C57.377 171.82 57.7911 173.098 58.0432 174.61C58.1153 175.007 58.1693 175.421 58.2053 175.853C58.2413 176.249 58.2593 176.609 58.2593 176.933C58.2593 178.158 58.1153 179.256 57.8272 180.228C57.5391 181.165 57.215 181.975 56.8548 182.659C56.4947 183.307 56.1526 183.83 55.8285 184.226C55.5404 184.586 55.3783 184.784 55.3423 184.82L54.8021 185.252L54.0459 185.144C52.8215 184.964 51.7231 184.838 50.7508 184.766C49.8144 184.658 48.9502 184.604 48.1579 184.604C47.3296 184.604 46.5553 184.658 45.8351 184.766C45.1149 184.838 44.3766 184.982 43.6203 185.198C42.9001 185.414 42.1258 185.702 41.2976 186.062C40.4693 186.386 39.551 186.783 38.5426 187.251L38.2185 187.467L37.7864 187.359C36.8861 187.359 36.0758 187.341 35.3556 187.305C34.6353 187.269 33.9691 187.251 33.3569 187.251C34.0771 188.475 34.8694 189.646 35.7337 190.762C36.634 191.842 37.6423 192.887 38.7587 193.895L39.0828 194.435C39.623 196.38 40.1992 198.162 40.8114 199.783C41.4236 201.368 42.1258 202.844 42.9181 204.213C43.7104 205.545 44.6107 206.805 45.619 207.994C46.6634 209.182 47.8518 210.335 49.1842 211.451L49.6164 212.261C49.9765 214.134 50.3906 215.826 50.8588 217.339C51.363 218.815 51.9752 220.202 52.6954 221.498C53.4517 222.795 54.334 224.037 55.3423 225.226C56.3867 226.414 57.6471 227.62 59.1236 228.845L59.4477 229.169L59.5557 229.709ZM116.167 179.904L115.681 180.498C110.747 186.08 107.956 192.238 107.308 198.973V199.297L106.984 199.621C104.391 202.898 102.428 206.211 101.096 209.56C99.7633 212.909 98.9891 216.385 98.773 219.986V220.418L98.4489 220.742C95.856 223.695 93.8393 226.882 92.3989 230.303C90.9584 233.724 90.1301 237.398 89.914 241.323V241.863L89.4819 242.241C89.4459 242.313 89.2838 242.457 88.9957 242.674C88.7436 242.89 88.3475 243.124 87.8073 243.376C87.3031 243.592 86.6729 243.808 85.9167 244.024C85.1604 244.204 84.2781 244.294 83.2698 244.294C82.4415 244.294 81.5232 244.204 80.5148 244.024C79.5425 243.844 78.4801 243.502 77.3278 242.998C75.3111 242.205 73.7626 241.287 72.6822 240.243C71.6378 239.198 70.8636 238.208 70.3594 237.272C69.8912 236.335 69.6211 235.525 69.5491 234.841C69.4771 234.157 69.4411 233.779 69.4411 233.706L69.9273 232.68C72.4841 230.087 74.5368 227.17 76.0853 223.929C77.6339 220.688 78.7502 217.051 79.4345 213.017V212.909C78.8583 211.901 78.2101 210.857 77.4898 209.776C76.7696 208.696 75.9953 207.652 75.167 206.643C74.3748 205.635 73.5465 204.717 72.6822 203.888C71.8539 203.024 71.0076 202.304 70.1433 201.728L69.7652 201.512L69.6572 200.971C68.5408 197.334 66.9743 194.093 64.9576 191.248C62.9769 188.367 60.456 185.81 57.395 183.578L56.8548 183.145V182.497C56.8548 182.605 56.9269 182.389 57.0709 181.849C57.1789 181.273 57.413 180.553 57.7731 179.688C58.0972 178.824 58.5654 177.87 59.1776 176.825C59.7898 175.781 60.5821 174.827 61.5544 173.962C62.5628 173.062 63.7692 172.306 65.1736 171.694C66.5781 171.081 68.2347 170.775 70.1433 170.775C70.8636 170.775 71.4398 170.829 71.8719 170.937C72.3401 171.045 72.6102 171.099 72.6822 171.099L73.3304 171.315L73.5465 171.964C75.9593 178.95 79.8666 184.442 85.2684 188.439L85.7006 189.087C85.9527 189.7 86.2048 190.366 86.4568 191.086C86.7449 191.77 87.0871 192.437 87.4832 193.085C87.4832 192.977 87.5012 192.869 87.5372 192.761C87.5732 192.653 87.5912 192.509 87.5912 192.328V191.896L87.9153 191.572C90.6163 188.763 92.687 185.774 94.1274 182.605C95.5679 179.436 96.4862 175.961 96.8824 172.18V171.423L97.5846 171.099C97.6566 171.027 98.0708 170.847 98.827 170.559C99.6193 170.235 100.754 170.073 102.23 170.073C103.995 170.073 105.561 170.307 106.93 170.775C108.298 171.207 109.487 171.784 110.495 172.504C111.539 173.188 112.404 173.926 113.088 174.719C113.808 175.511 114.384 176.249 114.816 176.933C115.249 177.618 115.555 178.194 115.735 178.662C115.951 179.094 116.059 179.292 116.059 179.256L116.167 179.904ZM176.235 173.098L176.019 173.746C175.371 175.763 174.849 177.726 174.453 179.634C174.093 181.543 173.912 183.451 173.912 185.36C173.912 186.801 174.02 188.241 174.237 189.682C174.489 191.086 174.831 192.527 175.263 194.003V194.759C174.147 198.577 173.588 202.304 173.588 205.941C173.588 207.814 173.732 209.632 174.02 211.397C174.309 213.162 174.759 214.908 175.371 216.637V217.555C174.651 219.428 174.111 221.318 173.75 223.227C173.426 225.136 173.264 227.044 173.264 228.953C173.264 232.59 173.894 236.191 175.155 239.757L175.371 240.351L175.155 240.783C175.119 240.855 174.921 241.179 174.561 241.755C174.201 242.295 173.606 242.89 172.778 243.538C171.95 244.186 170.833 244.78 169.429 245.32C168.024 245.825 166.278 246.077 164.189 246.077C162.461 246.077 160.984 245.915 159.76 245.591C158.535 245.23 157.509 244.762 156.681 244.186H156.14C155.168 244.186 154.304 244.096 153.548 243.916C152.791 243.7 152.161 243.484 151.657 243.268C151.153 243.016 150.757 242.782 150.469 242.565C150.216 242.313 150.072 242.151 150.036 242.079L149.604 241.755V241.215C149.424 237.542 148.668 234.031 147.335 230.681C146.003 227.332 144.058 224.019 141.501 220.742L141.285 220.202C140.853 217.753 140.241 215.448 139.449 213.288C138.693 211.127 137.756 209.038 136.64 207.021C136.712 208.714 136.874 210.353 137.126 211.937C137.414 213.522 137.846 215.088 138.422 216.637L138.639 217.123L138.422 217.555C137.738 219.392 137.234 221.246 136.91 223.119C136.586 224.956 136.424 226.828 136.424 228.737C136.424 230.609 136.568 232.464 136.856 234.301C137.144 236.101 137.63 237.92 138.314 239.757L138.53 240.351L138.314 240.783C138.278 240.855 138.08 241.179 137.72 241.755C137.36 242.295 136.766 242.89 135.938 243.538C135.109 244.186 133.975 244.78 132.534 245.32C131.13 245.825 129.365 246.077 127.241 246.077C125.116 246.077 123.351 245.807 121.947 245.266C120.578 244.69 119.48 244.06 118.652 243.376C117.859 242.656 117.301 242.007 116.977 241.431C116.653 240.855 116.491 240.531 116.491 240.459L116.275 239.919L116.491 239.432C117.319 237.452 117.931 235.417 118.328 233.328C118.724 231.24 118.922 229.079 118.922 226.846C118.922 225.334 118.832 223.821 118.652 222.309C118.508 220.76 118.238 219.176 117.841 217.555V216.907C118.274 215.106 118.616 213.342 118.868 211.613C119.156 209.848 119.3 208.138 119.3 206.481C119.3 204.537 119.138 202.646 118.814 200.809C118.49 198.973 118.058 197.136 117.517 195.299L117.409 194.867L117.625 194.435C119.174 190.474 119.948 186.531 119.948 182.605C119.948 181.021 119.822 179.472 119.57 177.96C119.354 176.411 118.994 174.827 118.49 173.206L118.274 172.504L118.706 171.964C118.742 171.928 118.958 171.712 119.354 171.315C119.75 170.883 120.344 170.433 121.137 169.965C121.965 169.461 122.991 169.029 124.216 168.668C125.44 168.272 126.899 168.074 128.591 168.074C130.212 168.074 131.598 168.272 132.751 168.668C133.939 169.029 134.947 169.461 135.776 169.965H136.64C138.152 169.965 139.359 170.145 140.259 170.505C141.159 170.829 141.646 171.027 141.718 171.099L142.42 171.423L142.528 172.072C143.284 179.49 145.859 185.72 150.252 190.762L150.577 191.086V191.41C151.513 197.316 153.367 202.412 156.14 206.697V206.589C156.14 204.645 155.996 202.754 155.708 200.917C155.42 199.081 155.006 197.208 154.466 195.299V194.435C156.014 190.474 156.789 186.459 156.789 182.389C156.789 179.292 156.338 176.231 155.438 173.206L155.222 172.504L155.654 171.964C155.69 171.928 155.906 171.712 156.302 171.315C156.699 170.883 157.293 170.433 158.085 169.965C158.913 169.461 159.94 169.029 161.164 168.668C162.389 168.272 163.847 168.074 165.54 168.074C167.232 168.074 168.709 168.308 169.969 168.777C171.23 169.209 172.292 169.695 173.156 170.235C174.02 170.775 174.669 171.279 175.101 171.748C175.533 172.216 175.767 172.468 175.803 172.504L176.235 173.098ZM237.168 217.447C237.384 218.635 237.492 219.734 237.492 220.742C237.492 221.858 237.384 222.867 237.168 223.767C236.952 224.631 236.7 225.388 236.412 226.036C236.16 226.648 235.907 227.152 235.655 227.548C235.439 227.909 235.313 228.107 235.277 228.143L234.845 228.737L234.089 228.629C233.585 228.557 233.08 228.521 232.576 228.521C232.072 228.521 231.568 228.521 231.064 228.521C231.568 230.285 232.198 231.996 232.954 233.652C233.711 235.309 234.557 236.912 235.493 238.46L236.087 239.324L235.385 240.135C235.349 240.171 235.151 240.369 234.791 240.729C234.467 241.053 233.963 241.449 233.279 241.917C232.594 242.349 231.712 242.818 230.632 243.322C229.587 243.826 228.345 244.24 226.904 244.564C226.22 244.744 225.536 244.888 224.852 244.996C224.203 245.068 223.555 245.104 222.907 245.104C221.971 245.104 221.106 245.032 220.314 244.888C219.558 244.744 218.91 244.582 218.369 244.402C217.829 244.186 217.397 244.006 217.073 243.862C216.785 243.718 216.623 243.646 216.587 243.646L215.831 243.214L215.939 242.349C215.939 241.881 215.957 241.431 215.993 240.999C216.029 240.567 216.047 240.117 216.047 239.649C216.047 237.164 215.831 234.697 215.398 232.248C215.254 232.392 215.128 232.464 215.02 232.464L214.264 232.68C211.995 232.68 209.673 232.824 207.296 233.112C204.919 233.4 202.56 233.923 200.219 234.679V236.353C200.219 237.902 200.327 239.45 200.543 240.999L200.651 241.539L200.327 241.971C200.291 242.007 200.111 242.205 199.787 242.565C199.463 242.926 198.959 243.322 198.275 243.754C197.59 244.186 196.726 244.582 195.682 244.942C194.637 245.266 193.377 245.428 191.901 245.428C189.02 245.428 186.733 245.014 185.04 244.186C183.384 243.358 182.105 242.421 181.205 241.377C180.161 240.189 179.458 238.838 179.098 237.326L178.99 236.894L179.314 236.461C181.151 233.652 182.501 230.663 183.366 227.494C184.266 224.289 184.716 220.832 184.716 217.123V215.232L184.932 214.584C186.337 211.775 187.363 208.984 188.011 206.211C188.695 203.402 189.038 200.575 189.038 197.73C189.038 197.01 189.02 196.29 188.984 195.57C188.948 194.849 188.894 194.129 188.821 193.409L188.713 192.869L189.038 192.437C192.495 187.143 194.223 181.417 194.223 175.259C194.223 174.719 194.205 174.16 194.169 173.584C194.133 172.972 194.079 172.36 194.007 171.748V171.099L194.493 170.613C194.529 170.577 194.709 170.451 195.034 170.235C195.394 169.983 195.88 169.731 196.492 169.479C197.104 169.191 197.843 168.939 198.707 168.722C199.607 168.506 200.633 168.398 201.786 168.398C204.019 168.398 205.909 168.741 207.458 169.425C209.042 170.109 210.321 170.865 211.293 171.694C212.265 172.522 212.968 173.278 213.4 173.962C213.868 174.647 214.12 175.007 214.156 175.043L214.48 175.745L214.156 176.393C214.012 176.537 213.94 176.645 213.94 176.717H214.696C216.281 176.717 217.523 176.825 218.424 177.041C219.36 177.257 219.864 177.365 219.936 177.365L220.584 177.852L220.476 178.608C220.404 179.04 220.368 179.472 220.368 179.904C220.368 180.3 220.368 180.715 220.368 181.147C220.368 187.557 221.881 193.427 224.906 198.757L225.122 199.405V200.863C225.122 202.736 225.194 204.537 225.338 206.265C225.482 207.958 225.77 209.578 226.202 211.127C226.922 210.839 227.625 210.533 228.309 210.209C228.993 209.884 229.659 209.524 230.308 209.128L230.848 208.804L231.55 209.02C231.586 209.056 231.82 209.218 232.252 209.506C232.72 209.794 233.243 210.263 233.819 210.911C234.431 211.559 235.043 212.423 235.655 213.504C236.304 214.548 236.808 215.862 237.168 217.447ZM208.052 203.618L207.296 201.079C206.467 203.24 205.855 205.383 205.459 207.508C205.063 209.632 204.865 211.721 204.865 213.774V215.232C206.413 214.692 207.89 214.062 209.294 213.342L210.159 213.126C210.411 213.198 210.663 213.252 210.915 213.288C211.167 213.324 211.401 213.342 211.617 213.342C211.221 211.793 210.717 210.227 210.105 208.642C209.528 207.021 208.844 205.347 208.052 203.618ZM291.78 201.296L291.672 201.944L291.024 202.16C287.567 203.672 284.542 205.455 281.949 207.508C279.356 209.56 277.105 211.991 275.197 214.8L274.657 215.34C273.324 215.88 271.938 216.601 270.497 217.501C269.057 218.401 267.616 219.41 266.176 220.526C264.771 221.642 263.421 222.849 262.124 224.145C260.864 225.406 259.729 226.702 258.721 228.035C258.649 228.323 258.631 228.611 258.667 228.899C258.703 229.151 258.721 229.421 258.721 229.709C258.721 231.618 258.865 233.49 259.153 235.327C259.441 237.128 259.928 238.946 260.612 240.783L260.828 241.323L260.612 241.755C260.576 241.827 260.378 242.151 260.018 242.728C259.657 243.268 259.063 243.862 258.235 244.51C257.407 245.158 256.272 245.753 254.832 246.293C253.427 246.833 251.663 247.103 249.538 247.103C247.413 247.103 245.649 246.815 244.244 246.239C242.876 245.663 241.777 245.032 240.949 244.348C240.157 243.664 239.599 243.034 239.275 242.457C238.95 241.845 238.788 241.503 238.788 241.431L238.572 240.891L238.788 240.459C239.617 238.442 240.229 236.389 240.625 234.301C241.021 232.212 241.219 230.051 241.219 227.818C241.219 226.306 241.129 224.793 240.949 223.281C240.805 221.732 240.535 220.148 240.139 218.527V217.879C240.571 216.079 240.913 214.314 241.165 212.585C241.453 210.857 241.597 209.146 241.597 207.454C241.597 205.509 241.435 203.636 241.111 201.836C240.787 199.999 240.355 198.162 239.815 196.326L239.707 195.84L239.923 195.408C241.471 191.446 242.246 187.503 242.246 183.578C242.246 182.029 242.12 180.48 241.867 178.932C241.651 177.383 241.291 175.799 240.787 174.178L240.571 173.53L241.003 172.936C241.039 172.9 241.183 172.756 241.435 172.504C241.687 172.216 242.066 171.892 242.57 171.531C243.074 171.135 243.722 170.757 244.514 170.397C245.307 170.001 246.243 169.677 247.323 169.425C248.008 168.344 248.782 167.498 249.646 166.886C250.51 166.238 251.321 165.751 252.077 165.427C252.869 165.103 253.535 164.887 254.076 164.779C254.652 164.671 254.976 164.599 255.048 164.563H255.642L256.074 164.887C257.227 165.932 258.379 166.832 259.531 167.588C260.684 168.308 261.872 168.957 263.097 169.533C264.357 170.073 265.69 170.541 267.094 170.937C268.498 171.333 270.029 171.675 271.686 171.964C271.866 171.964 272.046 171.982 272.226 172.018C272.406 172.054 272.586 172.072 272.766 172.072H273.198L273.684 172.396C275.125 173.62 276.493 174.683 277.79 175.583C279.122 176.447 280.491 177.185 281.895 177.798C283.299 178.374 284.776 178.824 286.324 179.148C287.873 179.472 289.584 179.688 291.456 179.796H292.158L292.591 180.39C292.591 180.462 292.645 180.625 292.753 180.877C292.897 181.129 293.041 181.489 293.185 181.957C293.329 182.389 293.455 182.929 293.563 183.578C293.707 184.19 293.779 184.892 293.779 185.684C293.779 186.404 293.707 187.179 293.563 188.007C293.455 188.835 293.239 189.718 292.915 190.654C292.375 192.166 291.744 193.427 291.024 194.435C291.42 195.372 291.672 196.272 291.78 197.136C291.924 197.964 291.996 198.685 291.996 199.297C291.996 199.837 291.96 200.287 291.888 200.647C291.816 201.007 291.78 201.223 291.78 201.296ZM267.364 191.41L266.662 191.086C265.293 190.33 264.015 189.61 262.827 188.925C261.638 188.241 260.486 187.647 259.369 187.143C259.369 188.475 259.477 189.79 259.693 191.086C259.91 192.346 260.216 193.643 260.612 194.975V195.732C259.711 198.793 259.153 201.782 258.937 204.699C259.549 204.086 260.126 203.474 260.666 202.862C261.242 202.214 261.584 201.692 261.692 201.296L262.016 200.863L262.502 200.755C267.256 198.955 271.343 196.326 274.765 192.869C273.612 192.473 272.424 192.166 271.199 191.95C270.011 191.734 268.733 191.554 267.364 191.41ZM341.531 229.709C341.531 229.817 341.513 230.177 341.477 230.79C341.441 231.402 341.243 232.176 340.883 233.112C340.559 234.013 340.001 235.003 339.208 236.083C338.416 237.164 337.246 238.208 335.697 239.216C335.301 240.045 334.905 240.693 334.509 241.161C334.113 241.629 333.879 241.899 333.807 241.971L333.374 242.565L332.564 242.457C331.304 242.277 330.187 242.133 329.215 242.025C328.279 241.917 327.414 241.863 326.622 241.863C325.794 241.863 325.02 241.917 324.299 242.025C323.579 242.133 322.841 242.295 322.085 242.511C321.364 242.728 320.59 243.016 319.762 243.376C318.97 243.7 318.087 244.096 317.115 244.564L316.305 244.672C315.368 244.672 314.45 244.636 313.55 244.564C312.685 244.456 311.911 244.402 311.227 244.402C310.255 244.402 309.372 244.456 308.58 244.564C307.824 244.672 307.068 244.852 306.311 245.104C305.555 245.356 304.745 245.681 303.88 246.077C303.016 246.473 302.008 246.959 300.855 247.535L300.261 247.859L299.829 247.751C298.461 247.283 297.254 246.563 296.21 245.591C295.31 244.762 294.481 243.592 293.725 242.079C293.005 240.567 292.645 238.586 292.645 236.137C292.645 234.625 292.843 233.346 293.239 232.302C293.671 231.258 294.139 230.411 294.643 229.763C295.183 229.115 295.67 228.647 296.102 228.359C296.534 228.035 296.786 227.855 296.858 227.818L297.29 227.494L297.83 227.602C298.947 227.818 299.919 227.981 300.747 228.089C301.576 228.197 302.35 228.251 303.07 228.251C303.718 228.251 304.349 228.215 304.961 228.143C305.609 228.035 306.293 227.891 307.013 227.71C307.734 227.494 308.526 227.242 309.39 226.954C310.291 226.63 311.353 226.252 312.577 225.82L313.01 225.604L313.442 225.712C315.134 226.072 316.647 226.306 317.979 226.414C317.547 225.73 317.025 225.064 316.413 224.415C315.836 223.731 315.224 223.029 314.576 222.309L314.198 221.768C313.694 219.932 313.136 218.257 312.523 216.745C311.911 215.196 311.191 213.756 310.363 212.423C309.57 211.091 308.67 209.83 307.662 208.642C306.653 207.454 305.519 206.283 304.259 205.131L303.826 204.807V204.375C303.214 200.701 302.098 197.352 300.477 194.327C298.857 191.266 296.696 188.493 293.995 186.008L293.509 185.576V184.928C293.509 184.892 293.545 184.73 293.617 184.442C293.689 184.154 293.815 183.776 293.995 183.307C294.175 182.839 294.445 182.299 294.805 181.687C295.165 181.075 295.634 180.444 296.21 179.796C296.138 179.616 296.102 179.454 296.102 179.31C296.102 179.166 296.102 179.004 296.102 178.824C296.102 177.311 296.3 176.033 296.696 174.989C297.128 173.944 297.596 173.098 298.1 172.45C298.605 171.802 299.073 171.333 299.505 171.045C299.937 170.721 300.189 170.541 300.261 170.505L300.747 170.289L301.288 170.397C303.304 170.865 304.997 171.099 306.365 171.099C307.013 171.099 307.626 171.063 308.202 170.991C308.778 170.883 309.39 170.739 310.039 170.559C310.723 170.343 311.461 170.109 312.253 169.857C313.046 169.605 313.964 169.317 315.008 168.993C315.188 168.921 315.35 168.867 315.494 168.831C315.638 168.759 315.8 168.668 315.981 168.56L316.413 168.29L316.899 168.398C318.231 168.686 319.402 168.903 320.41 169.047C321.454 169.155 322.409 169.209 323.273 169.209C324.894 169.209 326.46 168.975 327.973 168.506C329.485 168.038 331.322 167.318 333.482 166.346L334.131 165.968L334.779 166.346C334.815 166.382 335.049 166.544 335.481 166.832C335.949 167.12 336.471 167.588 337.048 168.236C337.624 168.885 338.2 169.731 338.776 170.775C339.352 171.82 339.767 173.098 340.019 174.61C340.091 175.007 340.145 175.421 340.181 175.853C340.217 176.249 340.235 176.609 340.235 176.933C340.235 178.158 340.091 179.256 339.803 180.228C339.514 181.165 339.19 181.975 338.83 182.659C338.47 183.307 338.128 183.83 337.804 184.226C337.516 184.586 337.354 184.784 337.318 184.82L336.778 185.252L336.021 185.144C334.797 184.964 333.699 184.838 332.726 184.766C331.79 184.658 330.926 184.604 330.133 184.604C329.305 184.604 328.531 184.658 327.811 184.766C327.09 184.838 326.352 184.982 325.596 185.198C324.876 185.414 324.101 185.702 323.273 186.062C322.445 186.386 321.526 186.783 320.518 187.251L320.194 187.467L319.762 187.359C318.862 187.359 318.051 187.341 317.331 187.305C316.611 187.269 315.945 187.251 315.332 187.251C316.053 188.475 316.845 189.646 317.709 190.762C318.609 191.842 319.618 192.887 320.734 193.895L321.058 194.435C321.598 196.38 322.175 198.162 322.787 199.783C323.399 201.368 324.101 202.844 324.894 204.213C325.686 205.545 326.586 206.805 327.594 207.994C328.639 209.182 329.827 210.335 331.16 211.451L331.592 212.261C331.952 214.134 332.366 215.826 332.834 217.339C333.338 218.815 333.951 220.202 334.671 221.498C335.427 222.795 336.309 224.037 337.318 225.226C338.362 226.414 339.623 227.62 341.099 228.845L341.423 229.169L341.531 229.709ZM385.178 207.454C385.178 209.074 384.962 210.497 384.53 211.721C384.098 212.909 383.611 213.918 383.071 214.746C382.531 215.574 382.027 216.205 381.559 216.637C381.127 217.069 380.892 217.303 380.856 217.339L380.316 217.771L379.56 217.555C377.543 216.871 375.761 216.367 374.212 216.043C372.7 215.718 371.187 215.556 369.675 215.556C368.558 215.556 367.46 215.664 366.38 215.88L366.704 216.529L366.92 217.015L366.704 217.447C365.839 219.896 365.245 222.327 364.921 224.739C365.497 224.595 366.145 224.469 366.866 224.361C367.586 224.253 368.27 224.163 368.918 224.091C369.567 224.019 370.107 223.965 370.539 223.929C370.971 223.893 371.205 223.875 371.241 223.875L371.673 223.713L372.106 223.983C374.158 224.811 375.905 225.442 377.345 225.874C378.786 226.306 380.244 226.522 381.721 226.522C382.729 226.522 383.827 226.414 385.016 226.198C386.204 225.982 387.555 225.676 389.067 225.28L389.715 225.064L390.256 225.496C390.292 225.568 390.49 225.802 390.85 226.198C391.246 226.558 391.66 227.134 392.092 227.927C392.524 228.683 392.921 229.655 393.281 230.844C393.641 231.996 393.821 233.382 393.821 235.003C393.785 236.623 393.533 238.028 393.065 239.216C392.596 240.405 392.092 241.413 391.552 242.241C391.012 243.034 390.508 243.646 390.04 244.078C389.571 244.51 389.319 244.744 389.283 244.78L388.581 245.104L387.933 244.888C385.808 244.096 384.044 243.538 382.639 243.214C381.235 242.854 379.866 242.674 378.534 242.674C377.597 242.674 376.625 242.764 375.617 242.944C374.608 243.088 373.438 243.322 372.106 243.646H371.349C370.341 243.466 369.333 243.268 368.324 243.052C367.352 242.8 366.362 242.565 365.353 242.349C364.993 242.746 364.525 243.178 363.949 243.646C363.409 244.078 362.724 244.474 361.896 244.834C361.104 245.194 360.167 245.482 359.087 245.699C358.043 245.951 356.854 246.077 355.522 246.077C353.397 246.077 351.633 245.789 350.228 245.212C348.86 244.636 347.761 244.006 346.933 243.322C346.141 242.602 345.583 241.953 345.258 241.377C344.934 240.765 344.772 240.423 344.772 240.351L344.556 239.919L344.772 239.324C345.601 237.344 346.213 235.309 346.609 233.22C347.005 231.132 347.203 229.007 347.203 226.846C347.203 225.334 347.113 223.803 346.933 222.255C346.789 220.706 346.519 219.104 346.123 217.447V216.745C346.555 214.98 346.897 213.252 347.149 211.559C347.437 209.83 347.581 208.102 347.581 206.373C347.581 204.465 347.419 202.592 347.095 200.755C346.771 198.919 346.339 197.1 345.799 195.299L345.691 194.759L345.907 194.327C346.699 192.383 347.275 190.438 347.635 188.493C348.031 186.513 348.229 184.55 348.229 182.605C348.229 181.021 348.103 179.454 347.851 177.906C347.635 176.321 347.275 174.719 346.771 173.098L346.555 172.396L346.987 171.856C347.023 171.82 347.239 171.603 347.635 171.207C348.031 170.775 348.626 170.325 349.418 169.857C350.246 169.353 351.272 168.921 352.497 168.56C353.721 168.164 355.18 167.966 356.872 167.966C358.817 167.966 360.474 168.236 361.842 168.777C363.21 169.317 364.309 169.893 365.137 170.505C366.182 170.397 367.28 170.235 368.432 170.019C369.585 169.803 370.737 169.497 371.889 169.101L372.322 168.885L372.916 168.993C374.644 169.533 376.139 169.947 377.399 170.235C378.696 170.487 379.92 170.613 381.073 170.613C382.333 170.613 383.647 170.451 385.016 170.127C386.384 169.803 387.987 169.317 389.824 168.668L390.472 168.398L391.066 168.777C391.102 168.813 391.336 169.011 391.768 169.371C392.2 169.731 392.668 170.289 393.173 171.045C393.677 171.766 394.145 172.702 394.577 173.854C395.045 174.971 395.333 176.339 395.441 177.96V178.932C395.441 180.372 395.261 181.651 394.901 182.767C394.541 183.884 394.127 184.838 393.659 185.63C393.227 186.386 392.813 186.963 392.416 187.359C392.056 187.755 391.858 187.971 391.822 188.007L391.282 188.439L390.472 188.223C388.743 187.827 387.267 187.539 386.042 187.359C384.818 187.143 383.683 187.035 382.639 187.035C381.415 187.035 380.19 187.179 378.966 187.467C377.777 187.719 376.337 188.115 374.644 188.655L373.888 188.763C372.376 188.475 370.917 188.259 369.513 188.115C368.144 187.971 366.758 187.899 365.353 187.899C365.461 188.907 365.605 189.916 365.785 190.924C366.001 191.896 366.272 192.887 366.596 193.895V194.651C366.38 195.299 366.2 195.948 366.055 196.596C365.947 197.208 365.839 197.856 365.731 198.541C366.776 198.829 367.748 199.027 368.648 199.135C369.585 199.243 370.557 199.297 371.565 199.297C372.898 199.297 374.248 199.189 375.617 198.973C376.985 198.721 378.48 198.343 380.1 197.838L380.748 197.622L381.289 198.054C381.325 198.09 381.541 198.307 381.937 198.703C382.369 199.063 382.819 199.639 383.287 200.431C383.791 201.187 384.224 202.16 384.584 203.348C384.98 204.501 385.178 205.869 385.178 207.454Z" fill="white"/>
<g clip-path="url(#clip1_851_246)">
<path d="M79.1641 129.338C118.023 132.495 183.508 129.72 251.087 110.632M425.483 6.53156L444.036 -9.14585M425.483 6.53156L430.43 -18.291M425.483 6.53156C378.731 60.9529 314.001 92.8613 251.087 110.632M210.27 344.903C210.27 245.612 231.297 123.886 251.087 110.632" stroke="white" stroke-width="7.83871"/>
<path d="M79.1641 129.338C118.023 132.495 183.508 129.72 251.087 110.632M425.483 6.53156L444.036 -9.14585M425.483 6.53156L430.43 -18.291M425.483 6.53156C378.731 60.9529 314.001 92.8613 251.087 110.632M210.27 344.903C210.27 245.612 231.297 123.886 251.087 110.632" stroke="white" stroke-opacity="0.2" stroke-width="7.83871"/>
<path d="M0 284.8C48.6496 288.719 148.422 294.729 158.317 287.412C170.686 278.267 171.923 250.832 176.87 258.67C181.817 266.509 179.344 322.689 176.87 321.382C174.396 320.076 165.738 296.56 154.607 295.253C145.701 294.208 49.0618 288.72 0 284.8Z" stroke="white" stroke-width="10.4516"/>
<path d="M305.905 293.352C305.905 294.016 305.817 294.599 305.64 295.101C305.463 295.588 305.263 296.001 305.042 296.34C304.821 296.68 304.614 296.938 304.422 297.115C304.245 297.292 304.149 297.388 304.135 297.403L303.913 297.58L303.603 297.491C302.777 297.211 302.047 297.004 301.412 296.871C300.793 296.739 300.173 296.672 299.553 296.672C299.096 296.672 298.646 296.716 298.203 296.805L298.336 297.071L298.424 297.27L298.336 297.447C297.79 298.952 297.517 300.494 297.517 302.073C297.517 302.825 297.576 303.57 297.694 304.308C297.812 305.046 298.011 305.791 298.292 306.543L298.38 306.787L298.292 306.964C298.277 306.993 298.196 307.126 298.048 307.362C297.901 307.584 297.657 307.834 297.318 308.115C296.978 308.38 296.514 308.624 295.923 308.845C295.348 309.066 294.625 309.177 293.754 309.177C292.884 309.177 292.161 309.059 291.585 308.823C291.025 308.587 290.575 308.329 290.235 308.048C289.911 307.753 289.682 307.488 289.549 307.252C289.416 307.001 289.35 306.861 289.35 306.831L289.262 306.654L289.35 306.41C289.689 305.599 289.94 304.765 290.103 303.91C290.265 303.054 290.346 302.183 290.346 301.298C290.346 300.678 290.309 300.051 290.235 299.417C290.176 298.782 290.066 298.126 289.903 297.447V297.159C290.08 296.436 290.221 295.728 290.324 295.034C290.442 294.326 290.501 293.618 290.501 292.91C290.501 292.128 290.435 291.36 290.302 290.608C290.169 289.855 289.992 289.11 289.771 288.373L289.726 288.151L289.815 287.974C290.139 287.177 290.376 286.381 290.523 285.584C290.685 284.772 290.767 283.968 290.767 283.171C290.767 282.522 290.715 281.88 290.612 281.246C290.523 280.597 290.376 279.94 290.169 279.276L290.08 278.988L290.258 278.767C290.272 278.752 290.361 278.664 290.523 278.501C290.685 278.324 290.929 278.14 291.253 277.948C291.593 277.742 292.013 277.564 292.515 277.417C293.017 277.255 293.614 277.173 294.308 277.173C295.105 277.173 295.783 277.284 296.344 277.505C296.905 277.727 297.355 277.963 297.694 278.214C298.122 278.169 298.572 278.103 299.044 278.015C299.516 277.926 299.988 277.801 300.461 277.638L300.638 277.55L300.881 277.594C301.589 277.815 302.202 277.985 302.718 278.103C303.249 278.206 303.751 278.258 304.223 278.258C304.74 278.258 305.278 278.192 305.839 278.059C306.399 277.926 307.056 277.727 307.809 277.461L308.074 277.351L308.318 277.505C308.332 277.52 308.428 277.601 308.605 277.749C308.782 277.896 308.974 278.125 309.181 278.435C309.387 278.73 309.579 279.114 309.756 279.586C309.948 280.043 310.066 280.604 310.11 281.268V281.666C310.11 282.257 310.037 282.78 309.889 283.238C309.741 283.695 309.572 284.086 309.38 284.411C309.203 284.721 309.033 284.957 308.871 285.119C308.723 285.281 308.642 285.37 308.627 285.385L308.406 285.562L308.074 285.473C307.366 285.311 306.761 285.193 306.259 285.119C305.758 285.031 305.293 284.986 304.865 284.986C304.363 284.986 303.862 285.045 303.36 285.163C302.873 285.267 302.283 285.429 301.589 285.65L301.279 285.694C300.66 285.576 300.062 285.488 299.487 285.429C298.926 285.37 298.358 285.34 297.783 285.34C297.827 285.754 297.886 286.167 297.96 286.58C298.048 286.978 298.159 287.384 298.292 287.797V288.107C298.203 288.373 298.129 288.638 298.07 288.904C298.026 289.155 297.982 289.42 297.937 289.7C298.365 289.819 298.764 289.9 299.133 289.944C299.516 289.988 299.915 290.01 300.328 290.01C300.874 290.01 301.427 289.966 301.988 289.878C302.548 289.774 303.161 289.619 303.825 289.413L304.09 289.324L304.312 289.501C304.326 289.516 304.415 289.605 304.577 289.767C304.754 289.914 304.939 290.15 305.131 290.475C305.337 290.785 305.514 291.183 305.662 291.67C305.824 292.142 305.905 292.703 305.905 293.352ZM320.269 279.165L320.136 279.453C319.871 280.265 319.664 281.061 319.517 281.843C319.384 282.611 319.317 283.385 319.317 284.167C319.317 284.787 319.354 285.392 319.428 285.982C319.517 286.558 319.649 287.14 319.827 287.731V288.063C319.369 289.671 319.14 291.213 319.14 292.688C319.14 293.441 319.199 294.179 319.317 294.902C319.436 295.61 319.62 296.318 319.871 297.026L319.959 297.226L319.871 297.403C319.59 298.155 319.384 298.915 319.251 299.682C319.118 300.435 319.052 301.202 319.052 301.984C319.052 302.751 319.111 303.511 319.229 304.264C319.347 305.001 319.546 305.747 319.827 306.499L319.915 306.742L319.827 306.92C319.812 306.949 319.731 307.082 319.583 307.318C319.436 307.539 319.192 307.783 318.853 308.048C318.513 308.314 318.049 308.557 317.458 308.779C316.883 308.985 316.16 309.089 315.289 309.089C314.419 309.089 313.696 308.978 313.12 308.757C312.56 308.52 312.11 308.262 311.77 307.982C311.446 307.687 311.217 307.421 311.084 307.185C310.951 306.949 310.885 306.816 310.885 306.787L310.796 306.543L310.885 306.366C311.224 305.54 311.475 304.706 311.637 303.865C311.8 303.009 311.881 302.124 311.881 301.209C311.881 300.59 311.844 299.97 311.77 299.35C311.711 298.716 311.601 298.067 311.438 297.403V297.115C311.615 296.392 311.756 295.684 311.859 294.99C311.977 294.282 312.036 293.574 312.036 292.865C312.036 292.069 311.969 291.294 311.837 290.542C311.704 289.789 311.527 289.036 311.306 288.284L311.261 288.107L311.35 287.93C311.984 286.307 312.301 284.691 312.301 283.083C312.301 282.434 312.25 281.792 312.147 281.157C312.058 280.523 311.91 279.874 311.704 279.21L311.615 278.944L311.792 278.723C311.807 278.708 311.896 278.619 312.058 278.457C312.22 278.28 312.464 278.096 312.788 277.904C313.128 277.697 313.548 277.52 314.05 277.373C314.552 277.21 315.149 277.129 315.843 277.129C316.551 277.129 317.163 277.225 317.68 277.417C318.196 277.594 318.624 277.793 318.963 278.015C319.317 278.236 319.583 278.442 319.76 278.634C319.937 278.826 320.033 278.929 320.048 278.944L320.269 279.165ZM336.337 297.978L336.249 298.177C335.703 299.682 335.43 301.113 335.43 302.471C335.43 303.135 335.489 303.799 335.607 304.463C335.74 305.127 335.932 305.835 336.182 306.588L336.293 306.831L336.182 307.008C336.168 307.038 336.087 307.17 335.939 307.406C335.791 307.628 335.548 307.871 335.209 308.137C334.869 308.402 334.412 308.646 333.836 308.867C333.261 309.074 332.538 309.177 331.667 309.177C330.797 309.177 330.074 309.066 329.498 308.845C328.938 308.609 328.495 308.351 328.17 308.07C327.846 307.775 327.617 307.51 327.484 307.274C327.352 307.038 327.278 306.905 327.263 306.875L327.175 306.654L327.263 306.455C327.602 305.643 327.853 304.854 328.016 304.087C328.178 303.319 328.259 302.537 328.259 301.741C328.259 301.195 328.222 300.634 328.148 300.058C328.089 299.468 327.979 298.841 327.816 298.177V297.889C328.023 297.137 328.17 296.429 328.259 295.765C328.348 295.101 328.392 294.452 328.392 293.817C328.392 292.474 328.163 291.117 327.706 289.745L327.617 289.546L327.706 289.368C328.03 288.572 328.259 287.775 328.392 286.978C328.539 286.167 328.628 285.363 328.657 284.566H328.436C326.931 284.566 325.433 284.839 323.943 285.385L323.766 285.429L323.545 285.34C323.515 285.34 323.382 285.274 323.146 285.141C322.91 285.008 322.645 284.78 322.35 284.455C322.069 284.13 321.818 283.695 321.597 283.149C321.361 282.589 321.243 281.88 321.243 281.025C321.243 280.228 321.354 279.579 321.575 279.077C321.796 278.56 322.04 278.155 322.305 277.86C322.586 277.55 322.837 277.336 323.058 277.218C323.294 277.085 323.427 277.011 323.456 276.996L323.633 276.908L323.855 276.996C324.504 277.232 325.153 277.402 325.802 277.505C326.452 277.594 327.123 277.638 327.816 277.638C328.436 277.638 329.1 277.616 329.808 277.572C330.531 277.513 331.21 277.365 331.844 277.129L332.022 277.041L332.199 277.129C332.951 277.38 333.659 277.564 334.323 277.683C335.002 277.801 335.673 277.86 336.337 277.86C337.533 277.86 338.846 277.631 340.277 277.173L340.543 277.085L340.764 277.262C340.779 277.277 340.875 277.358 341.052 277.505C341.229 277.653 341.413 277.882 341.605 278.192C341.811 278.487 341.996 278.87 342.158 279.342C342.335 279.8 342.431 280.346 342.446 280.98C342.446 281.644 342.365 282.227 342.202 282.729C342.04 283.216 341.856 283.629 341.649 283.968C341.457 284.293 341.273 284.544 341.096 284.721C340.919 284.883 340.823 284.986 340.808 285.031L340.587 285.208L340.277 285.119C339.524 284.883 338.831 284.721 338.196 284.632C337.577 284.529 336.957 284.477 336.337 284.477H335.696C335.666 284.684 335.659 284.883 335.673 285.075C335.688 285.252 335.696 285.429 335.696 285.606C335.696 286.226 335.732 286.831 335.806 287.421C335.895 288.011 336.02 288.601 336.182 289.191V289.457C335.961 290.283 335.791 291.043 335.673 291.737C335.57 292.43 335.518 293.109 335.518 293.773C335.518 294.452 335.577 295.116 335.696 295.765C335.814 296.414 335.998 297.093 336.249 297.801L336.337 297.978Z" fill="white"/>
</g>
</g>
<defs>
<clipPath id="clip0_851_246">
<rect width="405" height="405" fill="white"/>
</clipPath>
<clipPath id="clip1_851_246">
<rect width="444.194" height="444.194" fill="white" transform="translate(0 -18.291)"/>
</clipPath>
</defs>
</svg>
