<svg width="665" height="544" viewBox="0 0 665 544" fill="none" xmlns="http://www.w3.org/2000/svg">
<path d="M498.58 4.94434C505.283 4.94434 511.712 7.60719 516.451 12.3467C521.191 17.0861 523.852 23.5143 523.853 30.2168V186.247H634.558C638.203 186.247 641.806 187.035 645.118 188.558C648.43 190.08 651.373 192.301 653.746 195.067V195.068C656.118 197.837 657.864 201.085 658.863 204.592C659.862 208.098 660.091 211.779 659.534 215.382L612.799 517.551C611.875 523.513 608.849 528.948 604.269 532.875C599.688 536.801 593.854 538.961 587.821 538.962H316.615C311.79 538.962 307.065 537.579 303 534.979C298.935 532.38 295.699 528.67 293.675 524.29L293.674 524.289L273.844 481.397L272.518 478.527H212.194L211.72 482.944L209.75 501.283C209.083 507.482 206.148 513.215 201.511 517.381C196.873 521.547 190.859 523.852 184.625 523.853H30.2168C23.5143 523.852 17.0861 521.191 12.3467 516.451C7.6073 511.712 4.94446 505.284 4.94434 498.581V151.085C4.94435 144.382 7.60724 137.954 12.3467 133.215C17.0861 128.475 23.5142 125.813 30.2168 125.812H222.054C225.6 125.813 229.107 126.56 232.346 128.005C235.584 129.45 238.483 131.561 240.853 134.199C243.222 136.838 245.01 139.946 246.1 143.32C247.189 146.695 247.556 150.261 247.177 153.787L244.271 180.772L243.682 186.247H313.173L314.518 183.435L392.988 19.3223V19.3213C395.045 15.0179 398.277 11.3838 402.312 8.83984C406.22 6.37548 410.726 5.03067 415.34 4.94824L415.787 4.94434H498.58ZM430.382 58.3008L351.9 222.414L351.899 222.415C349.843 226.718 346.611 230.353 342.577 232.896C338.543 235.44 333.871 236.79 329.102 236.791H238.241L237.766 241.206L218.236 422.509L217.646 427.982H288.677C293.502 427.983 298.227 429.365 302.292 431.965C306.357 434.565 309.593 438.274 311.617 442.654L311.618 442.655L331.448 485.547L332.774 488.417H566.16L566.808 484.228L573.818 438.902L574.7 433.202H543.906C535.561 433.202 529.642 430.022 525.741 425.481C521.752 420.837 519.639 414.478 519.644 407.933C519.648 401.387 521.768 395.025 525.762 390.378C529.667 385.834 535.583 382.657 543.906 382.657H582.517L583.164 378.469L587.839 348.252L588.721 342.551H559.015C550.67 342.551 544.75 339.372 540.85 334.831C536.86 330.187 534.749 323.826 534.753 317.281C534.757 310.736 536.877 304.374 540.87 299.728C544.775 295.184 550.692 292.006 559.015 292.006H596.537L597.185 287.817L604.195 242.492L605.077 236.791H498.58C491.878 236.791 485.449 234.129 480.71 229.39C475.97 224.65 473.309 218.221 473.309 211.519V55.4893H431.726L430.382 58.3008ZM55.4893 473.309H161.929L162.404 468.893L193.319 181.831L193.909 176.357H55.4893V473.309Z" fill="#323232" stroke="white" stroke-width="9.8892"/>
</svg>
