<svg width="683" height="686" viewBox="0 0 683 686" fill="none" xmlns="http://www.w3.org/2000/svg">
<path d="M677.382 476.243V594.052C677.382 642.02 638.52 680.91 590.558 680.91C542.595 680.91 503.733 642.019 503.733 594.052V476.243H677.382Z" fill="#323232" stroke="white" stroke-width="9.8892"/>
<path d="M590.558 245.298C638.121 245.365 676.743 283.592 677.374 331.004L677.382 332.126V449.931H503.733V332.129C503.797 284.193 542.624 245.364 590.558 245.298Z" fill="#323232" stroke="white" stroke-width="9.8892"/>
<path d="M477.434 553.196V644.414C477.401 664.539 461.089 680.876 440.936 680.905H41.4424C21.2866 680.876 4.97346 664.535 4.94434 644.407V553.196H477.434Z" fill="#323232" stroke="white" stroke-width="9.8892"/>
<path d="M477.434 306.931V526.845H4.94434V306.931H477.434Z" fill="#323232" stroke="white" stroke-width="9.8892"/>
<path d="M440.936 152.896C461.094 152.925 477.404 169.235 477.434 189.394V280.604H4.94434V189.394C4.97362 169.235 21.2841 152.925 41.4424 152.896H440.936Z" fill="#323232" stroke="white" stroke-width="9.8892"/>
<path d="M403.574 86.0283V126.537H78.8037V86.0283H403.574Z" fill="#323232" stroke="white" stroke-width="9.8892"/>
<path d="M67.4893 4.94434H415.017C418.641 4.94434 422.138 6.34372 424.792 8.87012L425.046 9.11816C427.691 11.7634 429.186 15.3673 429.187 19.1143L429.182 59.7061H53.3193V19.1143C53.3193 11.2903 59.6435 4.94434 67.4893 4.94434Z" fill="#323232" stroke="white" stroke-width="9.8892"/>
</svg>
