<svg width="1132" height="2717" viewBox="0 0 1132 2717" fill="none" xmlns="http://www.w3.org/2000/svg">
<mask id="path-1-inside-1_724_494" fill="white">
<path d="M237.156 2716.79H894.844C957.695 2716.64 1017.93 2691.6 1062.37 2647.16C1106.81 2602.72 1131.85 2542.48 1132 2479.63C1132.01 2454.28 1122.52 2429.84 1105.4 2411.15C1122.64 2384.08 1131.87 2352.68 1132 2320.59V2207.39C1131.75 2165.5 1116.02 2125.19 1087.85 2094.19C1116.02 2063.19 1131.75 2022.88 1132 1980.99V1867.79C1131.75 1825.9 1116.02 1785.59 1087.85 1754.59C1116.02 1723.59 1131.75 1683.28 1132 1641.39V1528.19C1131.75 1486.31 1116.02 1445.99 1087.85 1414.99C1116.02 1384 1131.75 1343.68 1132 1301.79V1188.59C1131.75 1146.71 1116.02 1106.39 1087.85 1075.39C1116.02 1044.4 1131.75 1004.08 1132 962.195V859.184C1132.28 802.556 1112.19 747.714 1075.4 704.666L792.399 375.256V339.598C807.41 339.598 821.806 333.635 832.421 323.021C843.035 312.406 848.999 298.01 848.999 282.999V56.5997C848.999 41.5885 843.035 27.1922 832.421 16.5777C821.806 5.96317 807.41 0 792.399 0L339.601 0C324.59 0 310.194 5.96317 299.579 16.5777C288.965 27.1922 283.001 41.5885 283.001 56.5997V282.999C283.001 298.01 288.965 312.406 299.579 323.021C310.194 333.635 324.59 339.598 339.601 339.598V375.256L56.6026 704.666C19.8103 747.714 -0.278148 802.556 0.00290974 859.184V962.195C0.252549 1004.08 15.976 1044.4 44.1507 1075.39C15.976 1106.39 0.252549 1146.71 0.00290974 1188.59V1301.79C0.252549 1343.68 15.976 1384 44.1507 1414.99C15.976 1445.99 0.252549 1486.31 0.00290974 1528.19V1641.39C0.252549 1683.28 15.976 1723.59 44.1507 1754.59C15.976 1785.59 0.252549 1825.9 0.00290974 1867.79V1980.99C0.252549 2022.88 15.976 2063.19 44.1507 2094.19C15.976 2125.19 0.252549 2165.5 0.00290974 2207.39V2320.59C0.133549 2352.68 9.35724 2384.08 26.6048 2411.15C9.48085 2429.84 -0.0111383 2454.28 0.00290974 2479.63C0.152377 2542.48 25.186 2602.72 69.6285 2647.16C114.071 2691.6 174.305 2716.64 237.156 2716.79ZM396.201 113.199H735.799V226.399H396.201V113.199ZM113.202 2207.39C113.202 2192.38 119.165 2177.98 129.78 2167.37C140.394 2156.75 154.791 2150.79 169.802 2150.79H226.402V2037.59H169.802C154.791 2037.59 140.394 2031.63 129.78 2021.01C119.165 2010.4 113.202 1996 113.202 1980.99V1867.79C113.202 1852.78 119.165 1838.38 129.78 1827.77C140.394 1817.15 154.791 1811.19 169.802 1811.19H226.402V1697.99H169.802C154.791 1697.99 140.394 1692.03 129.78 1681.41C119.165 1670.8 113.202 1656.4 113.202 1641.39V1528.19C113.202 1513.18 119.165 1498.78 129.78 1488.17C140.394 1477.56 154.791 1471.59 169.802 1471.59H226.402V1358.39H169.802C154.791 1358.39 140.394 1352.43 129.78 1341.82C119.165 1331.2 113.202 1316.8 113.202 1301.79V1188.59C113.202 1173.58 119.165 1159.19 129.78 1148.57C140.394 1137.96 154.791 1131.99 169.802 1131.99H226.402V1018.79H169.802C154.791 1018.79 140.394 1012.83 129.78 1002.22C119.165 991.603 113.202 977.206 113.202 962.195V859.184C113.232 829.491 123.871 800.786 143.2 778.246L439.217 432.988C447.984 422.735 452.802 409.688 452.801 396.198V339.598H679.199V396.198C679.198 409.688 684.016 422.735 692.783 432.988L988.8 778.246C1008.13 800.786 1018.77 829.491 1018.8 859.184V962.195C1018.8 977.206 1012.83 991.603 1002.22 1002.22C991.606 1012.83 977.209 1018.79 962.198 1018.79H339.601V1131.99H962.198C977.209 1131.99 991.606 1137.96 1002.22 1148.57C1012.83 1159.19 1018.8 1173.58 1018.8 1188.59V1301.79C1018.8 1316.8 1012.83 1331.2 1002.22 1341.82C991.606 1352.43 977.209 1358.39 962.198 1358.39H339.601V1471.59H962.198C977.209 1471.59 991.606 1477.56 1002.22 1488.17C1012.83 1498.78 1018.8 1513.18 1018.8 1528.19V1641.39C1018.8 1656.4 1012.83 1670.8 1002.22 1681.41C991.606 1692.03 977.209 1697.99 962.198 1697.99H339.601V1811.19H962.198C977.209 1811.19 991.606 1817.15 1002.22 1827.77C1012.83 1838.38 1018.8 1852.78 1018.8 1867.79V1980.99C1018.8 1996 1012.83 2010.4 1002.22 2021.01C991.606 2031.63 977.209 2037.59 962.198 2037.59H339.601V2150.79H962.198C977.209 2150.79 991.606 2156.75 1002.22 2167.37C1012.83 2177.98 1018.8 2192.38 1018.8 2207.39V2320.59C1018.8 2335.6 1012.83 2350 1002.22 2360.61C991.606 2371.22 977.209 2377.19 962.198 2377.19H339.601V2490.39H1018.8C1016.11 2521.27 1001.95 2550.02 979.108 2570.97C956.268 2591.93 926.406 2603.56 895.41 2603.59H237.156C206.062 2603.7 176.06 2592.13 153.1 2571.16C130.141 2550.2 115.9 2521.36 113.202 2490.39H226.402V2377.19H169.802C154.791 2377.19 140.394 2371.22 129.78 2360.61C119.165 2350 113.202 2335.6 113.202 2320.59V2207.39Z"/>
</mask>
<path d="M237.156 2716.79H894.844C957.695 2716.64 1017.93 2691.6 1062.37 2647.16C1106.81 2602.72 1131.85 2542.48 1132 2479.63C1132.01 2454.28 1122.52 2429.84 1105.4 2411.15C1122.64 2384.08 1131.87 2352.68 1132 2320.59V2207.39C1131.75 2165.5 1116.02 2125.19 1087.85 2094.19C1116.02 2063.19 1131.75 2022.88 1132 1980.99V1867.79C1131.75 1825.9 1116.02 1785.59 1087.85 1754.59C1116.02 1723.59 1131.75 1683.28 1132 1641.39V1528.19C1131.75 1486.31 1116.02 1445.99 1087.85 1414.99C1116.02 1384 1131.75 1343.68 1132 1301.79V1188.59C1131.75 1146.71 1116.02 1106.39 1087.85 1075.39C1116.02 1044.4 1131.75 1004.08 1132 962.195V859.184C1132.28 802.556 1112.19 747.714 1075.4 704.666L792.399 375.256V339.598C807.41 339.598 821.806 333.635 832.421 323.021C843.035 312.406 848.999 298.01 848.999 282.999V56.5997C848.999 41.5885 843.035 27.1922 832.421 16.5777C821.806 5.96317 807.41 0 792.399 0L339.601 0C324.59 0 310.194 5.96317 299.579 16.5777C288.965 27.1922 283.001 41.5885 283.001 56.5997V282.999C283.001 298.01 288.965 312.406 299.579 323.021C310.194 333.635 324.59 339.598 339.601 339.598V375.256L56.6026 704.666C19.8103 747.714 -0.278148 802.556 0.00290974 859.184V962.195C0.252549 1004.08 15.976 1044.4 44.1507 1075.39C15.976 1106.39 0.252549 1146.71 0.00290974 1188.59V1301.79C0.252549 1343.68 15.976 1384 44.1507 1414.99C15.976 1445.99 0.252549 1486.31 0.00290974 1528.19V1641.39C0.252549 1683.28 15.976 1723.59 44.1507 1754.59C15.976 1785.59 0.252549 1825.9 0.00290974 1867.79V1980.99C0.252549 2022.88 15.976 2063.19 44.1507 2094.19C15.976 2125.19 0.252549 2165.5 0.00290974 2207.39V2320.59C0.133549 2352.68 9.35724 2384.08 26.6048 2411.15C9.48085 2429.84 -0.0111383 2454.28 0.00290974 2479.63C0.152377 2542.48 25.186 2602.72 69.6285 2647.16C114.071 2691.6 174.305 2716.64 237.156 2716.79ZM396.201 113.199H735.799V226.399H396.201V113.199ZM113.202 2207.39C113.202 2192.38 119.165 2177.98 129.78 2167.37C140.394 2156.75 154.791 2150.79 169.802 2150.79H226.402V2037.59H169.802C154.791 2037.59 140.394 2031.63 129.78 2021.01C119.165 2010.4 113.202 1996 113.202 1980.99V1867.79C113.202 1852.78 119.165 1838.38 129.78 1827.77C140.394 1817.15 154.791 1811.19 169.802 1811.19H226.402V1697.99H169.802C154.791 1697.99 140.394 1692.03 129.78 1681.41C119.165 1670.8 113.202 1656.4 113.202 1641.39V1528.19C113.202 1513.18 119.165 1498.78 129.78 1488.17C140.394 1477.56 154.791 1471.59 169.802 1471.59H226.402V1358.39H169.802C154.791 1358.39 140.394 1352.43 129.78 1341.82C119.165 1331.2 113.202 1316.8 113.202 1301.79V1188.59C113.202 1173.58 119.165 1159.19 129.78 1148.57C140.394 1137.96 154.791 1131.99 169.802 1131.99H226.402V1018.79H169.802C154.791 1018.79 140.394 1012.83 129.78 1002.22C119.165 991.603 113.202 977.206 113.202 962.195V859.184C113.232 829.491 123.871 800.786 143.2 778.246L439.217 432.988C447.984 422.735 452.802 409.688 452.801 396.198V339.598H679.199V396.198C679.198 409.688 684.016 422.735 692.783 432.988L988.8 778.246C1008.13 800.786 1018.77 829.491 1018.8 859.184V962.195C1018.8 977.206 1012.83 991.603 1002.22 1002.22C991.606 1012.83 977.209 1018.79 962.198 1018.79H339.601V1131.99H962.198C977.209 1131.99 991.606 1137.96 1002.22 1148.57C1012.83 1159.19 1018.8 1173.58 1018.8 1188.59V1301.79C1018.8 1316.8 1012.83 1331.2 1002.22 1341.82C991.606 1352.43 977.209 1358.39 962.198 1358.39H339.601V1471.59H962.198C977.209 1471.59 991.606 1477.56 1002.22 1488.17C1012.83 1498.78 1018.8 1513.18 1018.8 1528.19V1641.39C1018.8 1656.4 1012.83 1670.8 1002.22 1681.41C991.606 1692.03 977.209 1697.99 962.198 1697.99H339.601V1811.19H962.198C977.209 1811.19 991.606 1817.15 1002.22 1827.77C1012.83 1838.38 1018.8 1852.78 1018.8 1867.79V1980.99C1018.8 1996 1012.83 2010.4 1002.22 2021.01C991.606 2031.63 977.209 2037.59 962.198 2037.59H339.601V2150.79H962.198C977.209 2150.79 991.606 2156.75 1002.22 2167.37C1012.83 2177.98 1018.8 2192.38 1018.8 2207.39V2320.59C1018.8 2335.6 1012.83 2350 1002.22 2360.61C991.606 2371.22 977.209 2377.19 962.198 2377.19H339.601V2490.39H1018.8C1016.11 2521.27 1001.95 2550.02 979.108 2570.97C956.268 2591.93 926.406 2603.56 895.41 2603.59H237.156C206.062 2603.7 176.06 2592.13 153.1 2571.16C130.141 2550.2 115.9 2521.36 113.202 2490.39H226.402V2377.19H169.802C154.791 2377.19 140.394 2371.22 129.78 2360.61C119.165 2350 113.202 2335.6 113.202 2320.59V2207.39Z" fill="black" stroke="white" stroke-width="7.75343" mask="url(#path-1-inside-1_724_494)"/>
</svg>
