<svg width="801" height="351" viewBox="0 0 801 351" fill="none" xmlns="http://www.w3.org/2000/svg">
<path d="M121.076 342.764L9.97266 264.974C6.26578 261.178 4.14268 256.16 4.00684 250.868L4 250.345V100.152C4.00478 94.6601 6.14969 89.3908 9.97363 85.4736L121.076 7.68359V342.764ZM790.822 85.4697C794.649 89.3873 796.795 94.6583 796.8 100.152V250.348C796.794 255.832 794.653 261.056 790.822 264.977L679.772 342.762V7.68555L790.822 85.4697ZM504.451 25.1074C504.406 13.4312 513.882 3.95512 525.559 4H671.772V346.448H525.559C513.883 346.493 504.407 337.017 504.451 325.34V246.348H296.397V325.341C296.442 337.007 286.928 346.492 275.241 346.448H129.076V4H275.241C286.927 3.95508 296.441 13.4411 296.397 25.1074V104.149H504.451V25.1074Z" fill="#323232" stroke="white" stroke-width="8"/>
</svg>
